<?xml version="1.0" standalone="no"?>
<!DOCTYPE svg PUBLIC "-//W3C//DTD SVG 1.1//EN" "http://www.w3.org/Graphics/SVG/1.1/DTD/svg11.dtd" >
<svg xmlns="http://www.w3.org/2000/svg" xmlns:xlink="http://www.w3.org/1999/xlink" version="1.1">
<metadata>
Created by FontForge 20170731 at Tue Oct 24 15:39:21 2017
 By ,,,
Copyright (c) 2017 by Mateusz Machalski. All rights reserved.
</metadata>
<defs>
<font id="BonaTitle-Bold" horiz-adv-x="600" >
  <font-face 
    font-family="Bona Title"
    font-weight="400"
    font-stretch="normal"
    units-per-em="1000"
    panose-1="0 0 5 0 0 0 0 0 0 0"
    ascent="780"
    descent="-220"
    x-height="460"
    cap-height="665"
    bbox="-27 -308.085 1506 899"
    underline-thickness="50"
    underline-position="-200"
    unicode-range="U+0020-2212"
  />
<missing-glyph horiz-adv-x="500" 
d="M410 780v-1000h-317v1000h317zM333 713h-165v-33h65v-37h-66v-33h166v33h-66v37h66v33zM267 584h-100v-104h166v34h-66v70zM233 550v-36h-33v36h33zM333 453h-166v-33h66v-37h-66v-33h100v70h66v33zM333 393h-33v-66h-133v-34h166v100zM333 271h-100v-56h34v23h33v-47
h-100v80h-33v-113h166v113zM333 98h-166v-113h166v113zM300 65v-47h-100v47h100zM333 -38h-166v-33h70l-70 -47v-33h166v33h-102l70 47h32v33z" />
    <glyph glyph-name="fl" unicode="fl" horiz-adv-x="642" 
d="M559 90q0 -55 11 -70t49 -17v-3h-255v3q27 2 36 17.5t9 69.5v536q0 86 -17 119t-48 33q-44 0 -74.5 -54.5t-30.5 -180.5v-83h115v-3h-75q-40 0 -40 -40v-327q0 -54 9 -69.5t36 -17.5v-3h-240v3q27 2 36 17.5t9 69.5v367h-60v3h60v48q0 88 50 154.5t121.5 97t150.5 30.5
q90 0 152 -30q-4 -40 -4 -127v-543z" />
    <glyph glyph-name="T_T" unicode="TT" horiz-adv-x="1203" 
d="M1170 665v-165h-3q-14 87 -49.5 124.5t-111.5 37.5h-41v-582q0 -47 14 -61t56 -16v-3h-285v3q31 2 43 16.5t12 60.5v582h-42q-75 0 -110.5 -38t-49.5 -124h-3q-14 87 -49.5 124.5t-111.5 37.5h-41v-582q0 -47 14 -61t56 -16v-3h-285v3q31 2 43 16.5t12 60.5v582h-42
q-75 0 -110.5 -38t-49.5 -124h-3v165h1137z" />
    <glyph glyph-name="T_h" unicode="Th" horiz-adv-x="1121" 
d="M1040 90q0 -55 11 -70t49 -17v-3h-255v3q27 2 36 17.5t9 69.5v251q0 33 -10.5 49.5t-42.5 16.5q-47 0 -97 -32v-285q0 -55 11 -70t49 -17v-3h-255v3q27 2 36 17.5t9 69.5v410q0 162 -151 162h-41v-582q0 -47 14 -61t56 -16v-3h-285v3q31 2 43 16.5t12 60.5v582h-42
q-75 0 -110.5 -38t-49.5 -124h-3v165h555l153 70l3 -3q-4 -40 -4 -129v-225q86 97 180 97q62 0 91 -30t29 -94v-261z" />
    <glyph glyph-name="f_b" unicode="fb" horiz-adv-x="928" 
d="M717 475q75 0 128 -62.5t53 -166.5q0 -68 -25 -120.5t-66 -82t-87 -44t-95 -14.5q-76 0 -137 23l-79 -18v636q0 86 -17 119t-48 33q-44 0 -74.5 -54.5t-30.5 -180.5v-83h115v-3h-75q-40 0 -40 -40v-327q0 -54 9 -69.5t36 -17.5v-3h-240v3q27 2 36 17.5t9 69.5v367h-60v3
h60v48q0 88 50 154.5t121.5 97t150.5 30.5q90 0 152 -30q-4 -40 -4 -126v-252q20 41 62 67t96 26zM634 -10q46 0 75 55t29 158q0 104 -28.5 153t-75.5 49q-45 0 -75 -29v-303q23 -83 75 -83z" />
    <glyph glyph-name="f_f" unicode="ff" horiz-adv-x="667" 
d="M734 790q6 -34 6 -82t-6 -82h-3q-9 76 -36 116.5t-56 40.5q-26 0 -43 -20.5t-27 -75t-10 -144.5v-83h130v-3h-90q-40 0 -40 -40v-327q0 -56 14 -70.5t66 -16.5v-3h-275v3q27 2 36 17.5t9 69.5v367h-130q-40 0 -40 -40v-327q0 -54 9 -69.5t36 -17.5v-3h-240v3
q27 2 36 17.5t9 69.5v367h-60v3h60v28q0 86 47 151t114.5 95.5t140.5 30.5q68 0 131 -22q87 59 212 47zM409 460v48q0 76 28 135q-9 65 -30 90t-56 25q-48 0 -80 -54t-32 -181v-63h170z" />
    <glyph glyph-name="f_f_b" unicode="ffb" horiz-adv-x="1248" 
d="M1037 475q75 0 128 -62.5t53 -166.5q0 -68 -25 -120.5t-66 -82t-87 -44t-95 -14.5q-76 0 -137 23l-79 -18v636q0 86 -17 119t-48 33q-44 0 -74.5 -54.5t-30.5 -180.5v-83h115v-3h-75q-40 0 -40 -40v-327q0 -54 9 -69.5t36 -17.5v-3h-240v3q27 2 36 17.5t9 69.5v367h-130
q-40 0 -40 -40v-327q0 -54 9 -69.5t36 -17.5v-3h-240v3q27 2 36 17.5t9 69.5v367h-60v3h60v28q0 86 47 151t114.5 95.5t140.5 30.5q80 0 148 -28q88 53 192 53q90 0 152 -30q-4 -40 -4 -126v-252q20 41 62 67t96 26zM409 460v48q0 66 29 122q-8 72 -29 100t-58 28
q-48 0 -80 -54t-32 -181v-63h170zM954 -10q46 0 75 55t29 158q0 104 -28.5 153t-75.5 49q-45 0 -75 -29v-303q23 -83 75 -83z" />
    <glyph glyph-name="f_f_f" unicode="fff" horiz-adv-x="987" 
d="M1054 790q6 -34 6 -82t-6 -82h-3q-9 76 -36 116.5t-56 40.5q-26 0 -43 -20.5t-27 -75t-10 -144.5v-83h130v-3h-90q-40 0 -40 -40v-327q0 -56 14 -70.5t66 -16.5v-3h-275v3q27 2 36 17.5t9 69.5v367h-130q-40 0 -40 -40v-327q0 -54 9 -69.5t36 -17.5v-3h-240v3
q27 2 36 17.5t9 69.5v367h-130q-40 0 -40 -40v-327q0 -54 9 -69.5t36 -17.5v-3h-240v3q27 2 36 17.5t9 69.5v367h-60v3h60v3q0 86 47.5 151t118 95.5t148.5 30.5q70 0 135 -24q80 49 173 49q68 0 131 -22q87 59 212 47zM729 460v48q0 76 28 135q-9 65 -30 90t-56 25
q-48 0 -80 -54t-32 -181v-63h170zM409 460v28q0 79 39 140q-10 105 -88 105q-53 0 -87 -53.5t-34 -181.5v-38h170z" />
    <glyph glyph-name="f_f_h" unicode="ffh" horiz-adv-x="1260" 
d="M1179 90q0 -55 11 -70t49 -17v-3h-255v3q27 2 36 17.5t9 69.5v251q0 33 -10.5 49.5t-42.5 16.5q-47 0 -97 -32v-285q0 -55 11 -70t49 -17v-3h-255v3q27 2 36 17.5t9 69.5v536q0 86 -17 119t-48 33q-44 0 -74.5 -54.5t-30.5 -180.5v-83h115v-3h-75q-40 0 -40 -40v-327
q0 -54 9 -69.5t36 -17.5v-3h-240v3q27 2 36 17.5t9 69.5v367h-130q-40 0 -40 -40v-327q0 -54 9 -69.5t36 -17.5v-3h-240v3q27 2 36 17.5t9 69.5v367h-60v3h60v28q0 86 47 151t114.5 95.5t140.5 30.5q80 0 148 -28q88 53 192 53q90 0 152 -30q-4 -40 -4 -129v-253
q86 97 180 97q62 0 91 -30t29 -94v-261zM409 460v48q0 66 29 122q-8 72 -29 100t-58 28q-48 0 -80 -54t-32 -181v-63h170z" />
    <glyph glyph-name="f_f_i" unicode="ffi" horiz-adv-x="962" 
d="M879 90q0 -55 11 -70t49 -17v-3h-255v3q27 2 36 17.5t9 69.5v342q0 15 -19 20t-81 5h-30q-40 0 -40 -40v-327q0 -54 9 -69.5t36 -17.5v-3h-240v3q27 2 36 17.5t9 69.5v367h-130q-40 0 -40 -40v-327q0 -54 9 -69.5t36 -17.5v-3h-240v3q27 2 36 17.5t9 69.5v367h-60v3h60
v28q0 86 47 151t114.5 95.5t140.5 30.5q75 0 145 -27q107 64 268 52q6 -34 6 -82t-6 -82h-3q-16 92 -43.5 124t-70.5 32q-60 0 -94 -54t-34 -185v-83h70q139 0 248 21l6 -6q-4 -40 -4 -126v-259zM409 460v48q0 71 29 126q-9 70 -30 97t-57 27q-48 0 -80 -54t-32 -181v-63
h170z" />
    <glyph glyph-name="f_f_j" unicode="ffj" horiz-adv-x="946" 
d="M877 481l6 -6q-4 -40 -4 -126v-344q0 -106 -54 -170.5t-170 -65.5v3q44 27 59 79.5t15 168.5v412q0 15 -19.5 20t-82.5 5h-28q-40 0 -40 -40v-327q0 -54 9 -69.5t36 -17.5v-3h-240v3q27 2 36 17.5t9 69.5v367h-130q-40 0 -40 -40v-327q0 -54 9 -69.5t36 -17.5v-3h-240v3
q27 2 36 17.5t9 69.5v367h-60v3h60v28q0 86 47 151t114.5 95.5t140.5 30.5q75 0 145 -27q107 64 268 52q6 -34 6 -82t-6 -82h-3q-16 92 -43.5 124t-70.5 32q-60 0 -94 -54t-34 -185v-83h70q139 0 248 21zM409 460v48q0 71 29 126q-9 70 -30 97t-57 27q-48 0 -80 -54
t-32 -181v-63h170z" />
    <glyph glyph-name="f_f_k" unicode="ffk" horiz-adv-x="1234" 
d="M1153 103q34 -65 47 -82.5t29 -17.5v-3q-33 -15 -79 -15q-99 0 -142 77l-86 156l-43 -44v-84q0 -55 11 -70t49 -17v-3h-255v3q27 2 36 17.5t9 69.5v536q0 86 -17 119t-48 33q-44 0 -74.5 -54.5t-30.5 -180.5v-83h115v-3h-75q-40 0 -40 -40v-327q0 -54 9 -69.5t36 -17.5
v-3h-240v3q27 2 36 17.5t9 69.5v367h-130q-40 0 -40 -40v-327q0 -54 9 -69.5t36 -17.5v-3h-240v3q27 2 36 17.5t9 69.5v367h-60v3h60v28q0 86 47 151t114.5 95.5t140.5 30.5q80 0 148 -28q88 53 192 53q90 0 152 -30q-4 -40 -4 -129v-450h2l147 151q23 23 23 66q0 52 -71 59
v3h212v-3q-27 -2 -51 -20t-58 -53l-51 -53zM409 460v48q0 66 29 122q-8 72 -29 100t-58 28q-48 0 -80 -54t-32 -181v-63h170z" />
    <glyph glyph-name="f_f_l" unicode="ffl" horiz-adv-x="962" 
d="M879 90q0 -55 11 -70t49 -17v-3h-255v3q27 2 36 17.5t9 69.5v536q0 86 -17 119t-48 33q-44 0 -74.5 -54.5t-30.5 -180.5v-83h115v-3h-75q-40 0 -40 -40v-327q0 -54 9 -69.5t36 -17.5v-3h-240v3q27 2 36 17.5t9 69.5v367h-130q-40 0 -40 -40v-327q0 -54 9 -69.5t36 -17.5
v-3h-240v3q27 2 36 17.5t9 69.5v367h-60v3h60v28q0 86 47 151t114.5 95.5t140.5 30.5q80 0 148 -28q88 53 192 53q90 0 152 -30q-4 -40 -4 -127v-543zM409 460v48q0 66 29 122q-8 72 -29 100t-58 28q-48 0 -80 -54t-32 -181v-63h170z" />
    <glyph glyph-name="f_f_r" unicode="ffr" horiz-adv-x="1071" 
d="M1062 475q7 -80 0 -160h-3q-7 37 -32 55.5t-51 18.5q-60 0 -97 -36v-263q0 -55 12.5 -70t57.5 -17v-3h-265v3q27 2 36 17.5t9 69.5v342q0 15 -19.5 20t-82.5 5h-28q-40 0 -40 -40v-327q0 -54 9 -69.5t36 -17.5v-3h-240v3q27 2 36 17.5t9 69.5v367h-130q-40 0 -40 -40
v-327q0 -54 9 -69.5t36 -17.5v-3h-240v3q27 2 36 17.5t9 69.5v367h-60v3h60v28q0 86 47 151t114.5 95.5t140.5 30.5q68 0 131 -22q87 59 212 47q6 -34 6 -82t-6 -82h-3q-9 76 -36 116.5t-56 40.5q-26 0 -43 -20.5t-27 -75t-10 -144.5v-83h70q141 0 251 21l3 -3
q-7 -28 -7 -122h3q82 126 183 119zM409 460v48q0 76 28 135q-9 65 -30 90t-56 25q-48 0 -80 -54t-32 -181v-63h170z" />
    <glyph glyph-name="f_f_t" unicode="fft" horiz-adv-x="1035" 
d="M1028 89l3 -3q-46 -101 -151 -101q-69 0 -107 41t-38 109v322h-136q-40 0 -40 -40v-327q0 -54 9 -69.5t36 -17.5v-3h-240v3q27 2 36 17.5t9 69.5v367h-130q-40 0 -40 -40v-327q0 -54 9 -69.5t36 -17.5v-3h-240v3q27 2 36 17.5t9 69.5v367h-60v3h60v28q0 86 47 151
t114.5 95.5t140.5 30.5q68 0 131 -22q87 59 212 47q6 -34 6 -82t-6 -82h-3q-9 76 -36 116.5t-56 40.5q-26 0 -43 -20.5t-27 -75t-10 -144.5v-83h176v135l155 15q-5 -64 -5 -150h130v-3h-90q-40 0 -40 -40v-272q0 -80 71 -80q48 0 72 24zM409 460v48q0 76 28 135
q-9 65 -30 90t-56 25q-48 0 -80 -54t-32 -181v-63h170z" />
    <glyph glyph-name="f_f_u" unicode="ffu" horiz-adv-x="1255" 
d="M1233 78l1 -2l-211 -97l-3 3q7 28 7 100h-3q-86 -97 -175 -97q-62 0 -91 30t-29 94v323q0 15 -12.5 20t-52.5 5h-65q-40 0 -40 -40v-327q0 -54 9 -69.5t36 -17.5v-3h-240v3q27 2 36 17.5t9 69.5v367h-130q-40 0 -40 -40v-327q0 -54 9 -69.5t36 -17.5v-3h-240v3
q27 2 36 17.5t9 69.5v367h-60v3h60v28q0 86 47 151t114.5 95.5t140.5 30.5q68 0 131 -22q87 59 212 47q6 -34 6 -82t-6 -82h-3q-9 76 -36 116.5t-56 40.5q-26 0 -43 -20.5t-27 -75t-10 -144.5v-83h105q102 0 216 21l3 -3q-4 -40 -4 -129v-228q0 -33 10 -50.5t38 -17.5
q45 0 97 33v279q0 25 -22 25q-18 0 -37 -8l-1 2l211 97l3 -3q-4 -40 -4 -129v-254q0 -25 22 -25q18 0 37 8zM409 460v48q0 76 28 135q-9 65 -30 90t-56 25q-48 0 -80 -54t-32 -181v-63h170z" />
    <glyph glyph-name="f_f_v" unicode="ffv" horiz-adv-x="1110" 
d="M966 460h149v-3q-5 0 -10 -2.5t-9.5 -7.5t-8.5 -10t-9 -13.5t-8.5 -15t-8.5 -18.5t-8.5 -19t-9 -20.5t-8.5 -20.5l-113 -261q-19 -42 -29 -79h-8q-15 38 -37 79l-156 291q-33 61 -47.5 79t-30.5 18h-14q-40 0 -40 -40v-327q0 -54 9 -69.5t36 -17.5v-3h-240v3
q27 2 36 17.5t9 69.5v367h-60v3h60v48q0 76 27 133q-8 66 -29.5 91.5t-56.5 25.5q-48 0 -80 -54t-32 -181v-63h110v-3h-70q-40 0 -40 -40v-327q0 -54 9 -69.5t36 -17.5v-3h-240v3q27 2 36 17.5t9 69.5v367h-60v3h60v28q0 86 47 151t114.5 95.5t140.5 30.5q70 0 131 -22
q89 59 213 47q6 -34 6 -82t-6 -82h-3q-9 76 -36 116.5t-56 40.5q-26 0 -43 -20.5t-27 -75t-10 -144.5v-83h315v-3q-36 -2 -42.5 -31t15.5 -66l108 -200h2l73 170q11 31 12 58.5t-19 47.5t-58 21v3z" />
    <glyph glyph-name="f_f_y" unicode="ffy" horiz-adv-x="1129" 
d="M973 460h161v-3q-35 -3 -76 -97l-124 -281q-82 -187 -120.5 -245.5t-93.5 -58.5q-41 0 -61 24.5t-20 57.5q0 55 46 93h3q3 -43 17.5 -64t55.5 -21q33 0 61 21t58 81l-189 393q-41 84 -51 92q-5 5 -11 5h-29q-40 0 -40 -40v-327q0 -54 9 -69.5t36 -17.5v-3h-240v3
q27 2 36 17.5t9 69.5v367h-60v3h60v48q0 76 27 133q-8 66 -29.5 91.5t-56.5 25.5q-48 0 -80 -54t-32 -181v-63h110v-3h-70q-40 0 -40 -40v-327q0 -54 9 -69.5t36 -17.5v-3h-240v3q27 2 36 17.5t9 69.5v367h-60v3h60v28q0 86 47 151t114.5 95.5t140.5 30.5q70 0 131 -22
q89 59 213 47q6 -34 6 -82t-6 -82h-3q-9 76 -36 116.5t-56 40.5q-26 0 -43 -20.5t-27 -75t-10 -144.5v-83h322v-3q-36 -2 -41.5 -30t14.5 -67l102 -216h2l95 216q17 38 -7.5 66.5t-73.5 30.5v3z" />
    <glyph glyph-name="f_h" unicode="fh" horiz-adv-x="940" 
d="M859 90q0 -55 11 -70t49 -17v-3h-255v3q27 2 36 17.5t9 69.5v251q0 33 -10.5 49.5t-42.5 16.5q-47 0 -97 -32v-285q0 -55 11 -70t49 -17v-3h-255v3q27 2 36 17.5t9 69.5v536q0 86 -17 119t-48 33q-44 0 -74.5 -54.5t-30.5 -180.5v-83h115v-3h-75q-40 0 -40 -40v-327
q0 -54 9 -69.5t36 -17.5v-3h-240v3q27 2 36 17.5t9 69.5v367h-60v3h60v48q0 88 50 154.5t121.5 97t150.5 30.5q90 0 152 -30q-4 -40 -4 -129v-253q86 97 180 97q62 0 91 -30t29 -94v-261z" />
    <glyph glyph-name="f_i" unicode="fi" horiz-adv-x="642" 
d="M559 90q0 -55 11 -70t49 -17v-3h-255v3q27 2 36 17.5t9 69.5v342q0 15 -19 20t-81 5h-30q-40 0 -40 -40v-327q0 -54 9 -69.5t36 -17.5v-3h-240v3q27 2 36 17.5t9 69.5v367h-60v3h60v48q0 144 111.5 219.5t283.5 62.5q6 -34 6 -82t-6 -82h-3q-16 92 -43.5 124t-70.5 32
q-60 0 -94 -54t-34 -185v-83h70q139 0 248 21l6 -6q-4 -40 -4 -126v-259z" />
    <glyph glyph-name="f_j" unicode="fj" horiz-adv-x="626" 
d="M557 481l6 -6q-4 -40 -4 -126v-344q0 -106 -54 -170.5t-170 -65.5v3q44 27 59 79.5t15 168.5v412q0 15 -19.5 20t-82.5 5h-28q-40 0 -40 -40v-327q0 -54 9 -69.5t36 -17.5v-3h-240v3q27 2 36 17.5t9 69.5v367h-60v3h60v48q0 144 111.5 219.5t283.5 62.5q6 -34 6 -82
t-6 -82h-3q-16 92 -43.5 124t-70.5 32q-60 0 -94 -54t-34 -185v-83h70q139 0 248 21z" />
    <glyph glyph-name="f_k" unicode="fk" horiz-adv-x="914" 
d="M833 103q34 -65 47 -82.5t29 -17.5v-3q-33 -15 -79 -15q-99 0 -142 77l-86 156l-43 -44v-84q0 -55 11 -70t49 -17v-3h-255v3q27 2 36 17.5t9 69.5v536q0 86 -17 119t-48 33q-44 0 -74.5 -54.5t-30.5 -180.5v-83h115v-3h-75q-40 0 -40 -40v-327q0 -54 9 -69.5t36 -17.5v-3
h-240v3q27 2 36 17.5t9 69.5v367h-60v3h60v48q0 88 50 154.5t121.5 97t150.5 30.5q90 0 152 -30q-4 -40 -4 -129v-450h2l147 151q23 23 23 66q0 52 -71 59v3h212v-3q-27 -2 -51 -20t-58 -53l-51 -53z" />
    <glyph glyph-name="f_r" unicode="fr" horiz-adv-x="751" 
d="M742 475q7 -80 0 -160h-3q-7 37 -32 55.5t-51 18.5q-60 0 -97 -36v-263q0 -55 12.5 -70t57.5 -17v-3h-265v3q27 2 36 17.5t9 69.5v342q0 15 -19.5 20t-82.5 5h-28q-40 0 -40 -40v-327q0 -54 9 -69.5t36 -17.5v-3h-240v3q27 2 36 17.5t9 69.5v367h-60v3h60v48
q0 144 91.5 219.5t233.5 62.5q6 -34 6 -82t-6 -82h-3q-9 76 -36 116.5t-56 40.5q-26 0 -43 -20.5t-27 -75t-10 -144.5v-83h70q141 0 251 21l3 -3q-7 -28 -7 -122h3q82 126 183 119z" />
    <glyph glyph-name="f_t" unicode="ft" horiz-adv-x="715" 
d="M708 89l3 -3q-46 -101 -151 -101q-69 0 -107 41t-38 109v322h-136q-40 0 -40 -40v-327q0 -54 9 -69.5t36 -17.5v-3h-240v3q27 2 36 17.5t9 69.5v367h-60v3h60v48q0 144 91.5 219.5t233.5 62.5q6 -34 6 -82t-6 -82h-3q-9 76 -36 116.5t-56 40.5q-26 0 -43 -20.5t-27 -75
t-10 -144.5v-83h176v135l155 15q-5 -64 -5 -150h130v-3h-90q-40 0 -40 -40v-272q0 -80 71 -80q48 0 72 24z" />
    <glyph glyph-name="f_t_u" unicode="ftu" horiz-adv-x="1274" 
d="M1252 78l1 -2l-211 -97l-3 3q7 28 7 100h-3q-86 -97 -175 -97q-62 0 -91 30t-29 94v323q0 15 -12.5 20t-52.5 5h-78q-40 0 -40 -40v-272q0 -80 71 -80q48 0 72 24l3 -3q-46 -101 -151 -101q-69 0 -107 41t-38 109v322h-136q-40 0 -40 -40v-327q0 -54 9 -69.5t36 -17.5v-3
h-240v3q27 2 36 17.5t9 69.5v367h-60v3h60v48q0 144 91.5 219.5t233.5 62.5q6 -34 6 -82t-6 -82h-3q-9 76 -36 116.5t-56 40.5q-26 0 -43 -20.5t-27 -75t-10 -144.5v-83h176v135l155 15q-5 -64 -5 -150h118q102 0 216 21l3 -3q-4 -40 -4 -129v-228q0 -33 10 -50.5t38 -17.5
q45 0 97 33v279q0 25 -22 25q-18 0 -37 -8l-1 2l211 97l3 -3q-4 -40 -4 -129v-254q0 -25 22 -25q18 0 37 8z" />
    <glyph glyph-name="f_t_w" unicode="ftw" horiz-adv-x="1396" 
d="M1248 460h153v-3q-39 -4 -86 -127l-98 -261q-12 -33 -27 -79h-3q-20 50 -35 79l-116 229l-109 -229q-25 -54 -32 -79h-3q-7 22 -34 79l-141 291q-30 63 -42.5 80t-24.5 17h-45q-40 0 -40 -40v-272q0 -80 71 -80q48 0 72 24l3 -3q-46 -101 -151 -101q-69 0 -107 41
t-38 109v322h-136q-40 0 -40 -40v-327q0 -54 9 -69.5t36 -17.5v-3h-240v3q27 2 36 17.5t9 69.5v367h-60v3h60v48q0 144 91.5 219.5t233.5 62.5q6 -34 6 -82t-6 -82h-3q-9 76 -36 116.5t-56 40.5q-26 0 -43 -20.5t-27 -75t-10 -144.5v-83h176v135l155 15q-5 -64 -5 -150h336
v-3q-20 -1 -28 -14.5t-5 -34.5t16 -48l90 -181h2l58 122l-30 59q-32 64 -42 79.5t-21 17.5v3h242v-3q-35 -2 -37.5 -28t20.5 -69l86 -181h2l58 151q47 124 -64 127v3z" />
    <glyph glyph-name="f_t_y" unicode="fty" horiz-adv-x="1168" 
d="M1012 460h161v-3q-35 -3 -76 -97l-124 -281q-82 -187 -120.5 -245.5t-93.5 -58.5q-41 0 -61 24.5t-20 57.5q0 55 46 93h3q3 -43 17.5 -64t55.5 -21q33 0 61 21t58 81l-189 393q-41 84 -51 92q-5 5 -11 5h-63q-40 0 -40 -40v-272q0 -80 71 -80q48 0 72 24l3 -3
q-46 -101 -151 -101q-69 0 -107 41t-38 109v322h-136q-40 0 -40 -40v-327q0 -54 9 -69.5t36 -17.5v-3h-240v3q27 2 36 17.5t9 69.5v367h-60v3h60v48q0 144 91.5 219.5t233.5 62.5q6 -34 6 -82t-6 -82h-3q-9 76 -36 116.5t-56 40.5q-26 0 -43 -20.5t-27 -75t-10 -144.5v-83
h176v135l155 15q-5 -64 -5 -150h356v-3q-36 -2 -41.5 -30t14.5 -67l102 -216h2l95 216q17 38 -7.5 66.5t-73.5 30.5v3z" />
    <glyph glyph-name="f_u" unicode="fu" horiz-adv-x="935" 
d="M913 78l1 -2l-211 -97l-3 3q7 28 7 100h-3q-86 -97 -175 -97q-62 0 -91 30t-29 94v323q0 15 -12.5 20t-52.5 5h-65q-40 0 -40 -40v-327q0 -54 9 -69.5t36 -17.5v-3h-240v3q27 2 36 17.5t9 69.5v367h-60v3h60v48q0 144 91.5 219.5t233.5 62.5q6 -34 6 -82t-6 -82h-3
q-9 76 -36 116.5t-56 40.5q-26 0 -43 -20.5t-27 -75t-10 -144.5v-83h105q102 0 216 21l3 -3q-4 -40 -4 -129v-228q0 -33 10 -50.5t38 -17.5q45 0 97 33v279q0 25 -22 25q-18 0 -37 -8l-1 2l211 97l3 -3q-4 -40 -4 -129v-254q0 -25 22 -25q18 0 37 8z" />
    <glyph glyph-name="f_v" unicode="fv" horiz-adv-x="789" 
d="M645 460h149v-3q-5 0 -10 -2.5t-9.5 -7.5t-8.5 -10t-9 -13.5t-8.5 -15t-8.5 -18.5t-8.5 -19t-9 -20.5t-8.5 -20.5l-113 -261q-19 -42 -29 -79h-8q-15 38 -37 79l-156 291q-33 61 -47.5 79t-30.5 18h-14q-40 0 -40 -40v-327q0 -54 9 -69.5t36 -17.5v-3h-240v3
q27 2 36 17.5t9 69.5v367h-60v3h60v48q0 144 91.5 219.5t233.5 62.5q6 -34 6 -82t-6 -82h-3q-9 76 -36 116.5t-56 40.5q-26 0 -43 -20.5t-27 -75t-10 -144.5v-83h315v-3q-36 -2 -42.5 -31t15.5 -66l108 -200h2l73 170q11 31 12 58.5t-19 47.5t-58 21v3z" />
    <glyph glyph-name="f_y" unicode="fy" horiz-adv-x="808" 
d="M652 460h161v-3q-35 -3 -76 -97l-124 -281q-82 -187 -120.5 -245.5t-93.5 -58.5q-41 0 -61 24.5t-20 57.5q0 55 46 93h3q3 -43 17.5 -64t55.5 -21q33 0 61 21t58 81l-189 393q-41 84 -51 92q-5 5 -11 5h-29q-40 0 -40 -40v-327q0 -54 9 -69.5t36 -17.5v-3h-240v3
q27 2 36 17.5t9 69.5v367h-60v3h60v48q0 144 91.5 219.5t233.5 62.5q6 -34 6 -82t-6 -82h-3q-9 76 -36 116.5t-56 40.5q-26 0 -43 -20.5t-27 -75t-10 -144.5v-83h322v-3q-36 -2 -41.5 -30t14.5 -67l102 -216h2l95 216q17 38 -7.5 66.5t-73.5 30.5v3z" />
    <glyph glyph-name="t_t" unicode="tt" horiz-adv-x="714" 
d="M707 89l3 -3q-46 -101 -151 -101q-69 0 -107 41t-38 109v322h-140q-40 0 -40 -40v-272q0 -80 71 -80q48 0 72 24l3 -3q-46 -101 -151 -101q-69 0 -107 41t-38 109v322h-60v3h60v135l155 15q-5 -64 -5 -150h180v135l155 15q-5 -64 -5 -150h130v-3h-90q-40 0 -40 -40v-272
q0 -80 71 -80q48 0 72 24z" />
    <glyph glyph-name="t_t_y" unicode="tty" horiz-adv-x="1167" 
d="M1011 460h161v-3q-35 -3 -76 -97l-124 -281q-82 -187 -120.5 -245.5t-93.5 -58.5q-41 0 -61 24.5t-20 57.5q0 55 46 93h3q3 -43 17.5 -64t55.5 -21q33 0 61 21t58 81l-189 393q-41 84 -51 92q-5 5 -11 5h-63q-40 0 -40 -40v-272q0 -80 71 -80q48 0 72 24l3 -3
q-46 -101 -151 -101q-69 0 -107 41t-38 109v322h-140q-40 0 -40 -40v-272q0 -80 71 -80q48 0 72 24l3 -3q-46 -101 -151 -101q-69 0 -107 41t-38 109v322h-60v3h60v135l155 15q-5 -64 -5 -150h180v135l155 15q-5 -64 -5 -150h356v-3q-36 -2 -41.5 -30t14.5 -67l102 -216h2
l95 216q17 38 -7.5 66.5t-73.5 30.5v3z" />
    <glyph glyph-name="t_v" unicode="tv" horiz-adv-x="818" 
d="M674 460h149v-3q-5 0 -10 -2.5t-9.5 -7.5t-8.5 -10t-9 -13.5t-8.5 -15t-8.5 -18.5t-8.5 -19t-9 -20.5t-8.5 -20.5l-113 -261q-19 -42 -29 -79h-8q-15 38 -37 79l-156 291q-33 61 -47.5 79t-30.5 18h-48q-40 0 -40 -40v-272q0 -80 71 -80q48 0 72 24l3 -3
q-46 -101 -151 -101q-69 0 -107 41t-38 109v322h-60v3h60v135l155 15q-5 -64 -5 -150h349v-3q-36 -2 -42.5 -31t15.5 -66l108 -200h2l73 170q11 31 12 58.5t-19 47.5t-58 21v3z" />
    <glyph glyph-name="t_w" unicode="tw" horiz-adv-x="1065" 
d="M917 460h153v-3q-39 -4 -86 -127l-98 -261q-12 -33 -27 -79h-3q-20 50 -35 79l-116 229l-109 -229q-25 -54 -32 -79h-3q-7 22 -34 79l-141 291q-30 63 -42.5 80t-24.5 17h-45q-40 0 -40 -40v-272q0 -80 71 -80q48 0 72 24l3 -3q-46 -101 -151 -101q-69 0 -107 41t-38 109
v322h-60v3h60v135l155 15q-5 -64 -5 -150h336v-3q-20 -1 -28 -14.5t-5 -34.5t16 -48l90 -181h2l58 122l-30 59q-32 64 -42 79.5t-21 17.5v3h242v-3q-35 -2 -37.5 -28t20.5 -69l86 -181h2l58 151q47 124 -64 127v3z" />
    <glyph glyph-name="t_y" unicode="ty" horiz-adv-x="837" 
d="M681 460h161v-3q-35 -3 -76 -97l-124 -281q-82 -187 -120.5 -245.5t-93.5 -58.5q-41 0 -61 24.5t-20 57.5q0 55 46 93h3q3 -43 17.5 -64t55.5 -21q33 0 61 21t58 81l-189 393q-41 84 -51 92q-5 5 -11 5h-63q-40 0 -40 -40v-272q0 -80 71 -80q48 0 72 24l3 -3
q-46 -101 -151 -101q-69 0 -107 41t-38 109v322h-60v3h60v135l155 15q-5 -64 -5 -150h356v-3q-36 -2 -41.5 -30t14.5 -67l102 -216h2l95 216q17 38 -7.5 66.5t-73.5 30.5v3z" />
    <glyph glyph-name=".notdef" horiz-adv-x="500" 
d="M410 780v-1000h-317v1000h317zM333 713h-165v-33h65v-37h-66v-33h166v33h-66v37h66v33zM267 584h-100v-104h166v34h-66v70zM233 550v-36h-33v36h33zM333 453h-166v-33h66v-37h-66v-33h100v70h66v33zM333 393h-33v-66h-133v-34h166v100zM333 271h-100v-56h34v23h33v-47
h-100v80h-33v-113h166v113zM333 98h-166v-113h166v113zM300 65v-47h-100v47h100zM333 -38h-166v-33h70l-70 -47v-33h166v33h-102l70 47h32v33z" />
    <glyph glyph-name=".null" horiz-adv-x="0" 
 />
    <glyph glyph-name="nonmarkingreturn" horiz-adv-x="333" 
 />
    <glyph glyph-name="space" unicode=" " horiz-adv-x="220" 
 />
    <glyph glyph-name="exclam" unicode="!" horiz-adv-x="225" 
d="M111 220q-6 205 -65 445l163 42q0 -214 -95 -487h-3zM113 -15q-37 0 -62 25.5t-25 60.5q0 36 25.5 61.5t61.5 25.5t61 -25.5t25 -61.5q0 -35 -25 -60.5t-61 -25.5z" />
    <glyph glyph-name="quotedbl" unicode="&#x22;" horiz-adv-x="343" 
d="M158 680q-71 14 -143 0q22 -159 70 -305h3q48 146 70 305zM328 680q-72 14 -143 0q22 -159 70 -305h3q48 146 70 305z" />
    <glyph glyph-name="numbersign" unicode="#" horiz-adv-x="550" 
d="M544 415h-100l-38 -215h100l-11 -60h-99l-25 -140h-60l25 140h-180l-25 -140h-60l25 140h-101l11 60h100l38 215h-100l11 60h99l25 140h60l-25 -140h180l25 140h60l-25 -140h101zM346 200l38 215h-180l-38 -215h180z" />
    <glyph glyph-name="dollar" unicode="$" horiz-adv-x="540" 
d="M261 360q19 -12 52.5 -27.5t58.5 -28.5t51 -32t40 -46.5t14 -63.5q0 -76 -61.5 -126.5t-168.5 -50.5q-22 0 -46 3l-18 -109l-3 1l18 108q-135 17 -135 112q0 58 55 100h3q3 -57 22.5 -113t56.5 -82l32 197q-80 39 -107 62q-52 46 -52 117q0 79 60.5 119t153.5 40l16 99h3
l-16 -99q65 0 148 -27v-138h-3q-24 80 -63.5 120.5t-82.5 41.5zM207 445q0 -49 51 -83l28 175q-37 -1 -58 -28.5t-21 -63.5zM255 -12q39 0 63 26.5t24 64.5q0 43 -27.5 69.5t-79.5 51.5l-32 -197q25 -15 52 -15z" />
    <glyph glyph-name="percent" unicode="%" horiz-adv-x="798" 
d="M596 575l3 -2l-371 -585l-3 2zM198 543q69 0 115.5 -45.5t46.5 -117.5q0 -71 -46 -118t-116 -47q-69 0 -115.5 45.5t-46.5 117.5q0 71 46 118t116 47zM200 218q48 0 48 153q0 169 -52 169q-48 0 -48 -153q0 -169 52 -169zM600 313q69 0 115.5 -45.5t46.5 -117.5
q0 -71 -46 -118t-116 -47q-69 0 -115.5 45.5t-46.5 117.5q0 71 46 118t116 47zM602 -12q48 0 48 153q0 169 -52 169q-48 0 -48 -153q0 -169 52 -169z" />
    <glyph glyph-name="ampersand" unicode="&#x26;" horiz-adv-x="798" 
d="M652 123q26 -40 42.5 -61.5t43 -40t55.5 -18.5v-3q-31 -15 -78 -15q-148 0 -211 80q-90 -80 -212 -80q-97 0 -165.5 43.5t-68.5 127.5q0 141 183 189q-52 42 -78 78t-26 88q0 80 60.5 124.5t145.5 44.5q75 0 132.5 -34.5t57.5 -98.5q0 -27 -11 -46.5t-35 -32.5t-46 -20
t-59 -16q129 -102 227 -244q18 43 24 68t12 72q8 67 -79 77v3h187v-3q-53 -2 -76 -18.5t-29 -58.5q-7 -53 -12.5 -75.5t-24.5 -67.5q18 -26 41 -62zM338 677q-31 0 -46 -31t-15 -68q0 -40 21 -68t80 -75q25 57 25 129q0 48 -17 80.5t-48 32.5zM375 35q72 0 127 33
q-68 102 -112 147.5t-146 126.5q-32 -61 -32 -124q0 -30 7 -58.5t23.5 -58.5t50.5 -48t82 -18z" />
    <glyph glyph-name="quotesingle" unicode="'" horiz-adv-x="173" 
d="M158 680q-71 14 -143 0q22 -159 70 -305h3q48 146 70 305z" />
    <glyph glyph-name="parenleft" unicode="(" horiz-adv-x="296" 
d="M293 751q-100 -158 -100 -459q0 -329 100 -487l-3 -4q-115 94 -173.5 223t-58.5 268q0 274 232 462z" />
    <glyph glyph-name="parenright" unicode=")" horiz-adv-x="268" 
d="M3 751l3 3q232 -188 232 -462q0 -139 -58.5 -268t-173.5 -223l-3 4q100 158 100 487q0 301 -100 459z" />
    <glyph glyph-name="asterisk" unicode="*" horiz-adv-x="412" 
d="M392 587l-128 -79l63 -145l-1 -2l-120 104l-120 -104l-1 2l63 145l-128 79l1 2l150 -13l34 149h2l34 -149l150 13z" />
    <glyph glyph-name="plus" unicode="+" 
d="M505 255v-50h-180v-180h-50v180h-180v50h180v180h50v-180h180z" />
    <glyph glyph-name="comma" unicode="," horiz-adv-x="199" 
d="M153 163q-70 -5 -123 -61q21 -46 21 -100q0 -41 -16 -93t-42 -68v-3q76 17 128 78.5t52 137.5q0 60 -20 109z" />
    <glyph glyph-name="hyphen" unicode="-" horiz-adv-x="355" 
d="M333 290l-310 -27l-1 3l310 27z" />
    <glyph glyph-name="period" unicode="." horiz-adv-x="225" 
d="M113 -15q-37 0 -62 25.5t-25 60.5q0 36 25.5 61.5t61.5 25.5t61 -25.5t25 -61.5q0 -35 -25 -60.5t-61 -25.5z" />
    <glyph glyph-name="slash" unicode="/" horiz-adv-x="330" 
d="M326 790h4l-326 -940h-4z" />
    <glyph glyph-name="zero" unicode="0" horiz-adv-x="532" 
d="M268 475q93 0 160.5 -67t67.5 -175q0 -109 -68.5 -178.5t-163.5 -69.5q-93 0 -160.5 67.5t-67.5 175.5q0 109 68.5 178t163.5 69zM269 130q116 0 170 29t54 72t-56 71t-174 28q-116 0 -170 -27.5t-54 -69.5q0 -44 57 -73.5t173 -29.5z" />
    <glyph glyph-name="one" unicode="1" horiz-adv-x="438" 
d="M310 110q0 -71 16.5 -88t83.5 -19v-3h-350v3q68 2 84 19t16 88v285l-111 -72l-2 2l222 145h48q-7 -35 -7 -76v-284z" />
    <glyph glyph-name="two" unicode="2" horiz-adv-x="490" 
d="M452 175h3l-10 -175h-412v3q21 10 58 37q52 37 87.5 79t50 79.5t19.5 61.5t5 45q0 65 -71 65q-76 0 -139 -57l-3 2q73 160 230 160q70 0 106.5 -32.5t36.5 -90.5q0 -74 -59 -132.5t-167 -96.5v-3h140q117 0 125 55z" />
    <glyph glyph-name="three" unicode="3" horiz-adv-x="508" 
d="M191 137v-3q128 24 203.5 -16t75.5 -139q0 -101 -88 -160t-207 -59q-123 0 -188 51q8 66 44 113q37 -83 74.5 -122t82.5 -39q57 0 89.5 55.5t32.5 135.5q0 95 -42.5 140.5t-136.5 20.5v3q40 13 68.5 35t42 46t19 43.5t5.5 35.5q0 43 -24.5 67.5t-70.5 24.5
q-41 0 -81.5 -18.5t-64.5 -49.5l-2 3q77 170 238 170q74 0 117 -37t43 -105q0 -150 -230 -196z" />
    <glyph glyph-name="four" unicode="4" horiz-adv-x="559" 
d="M456 120h70v-120h-42q-26 0 -28 -39q0 -66 2 -186l-148 -15q6 114 6 240h-298v3q14 13 46 52l299 376q35 44 46 62h48zM313 363l-193 -243h196v243h-3z" />
    <glyph glyph-name="five" unicode="5" horiz-adv-x="484" 
d="M433 465l-17 -135h-347l-8 -60q385 -66 385 -269q0 -100 -81.5 -170.5t-197.5 -70.5q-108 0 -175 51q8 66 44 113q19 -34 33.5 -57.5t35 -50t41 -40t41.5 -13.5q62 0 95.5 39.5t33.5 109.5q0 95 -67 149t-210 74l43 325h275q51 0 76 5z" />
    <glyph glyph-name="six" unicode="6" horiz-adv-x="566" 
d="M447 687q-123 -46 -187 -156t-64 -262q0 -131 26 -206t69 -75q38 0 61 59.5t23 168.5q0 177 -87 177q-26 0 -58 -16v3q50 53 123 53q78 0 127.5 -53t49.5 -145q0 -62 -23.5 -111.5t-61 -79t-80.5 -44.5t-87 -15q-100 0 -171 74t-71 203q0 164 118 280.5t293 147.5v-3z
" />
    <glyph glyph-name="seven" unicode="7" horiz-adv-x="510" 
d="M487 460v-3q-54 -106 -126 -325t-88 -357h-180q36 71 83 151.5t74.5 125t94 147.5t83.5 131h-286q-98 0 -105 -80h-3v210h453z" />
    <glyph glyph-name="eight" unicode="8" horiz-adv-x="529" 
d="M328 377q101 -69 133 -104.5t32 -95.5q0 -95 -67 -143.5t-174 -48.5q-92 0 -154 35t-62 107q0 114 170 145q-90 58 -130 104t-40 113q0 90 67 140.5t172 50.5q90 0 154 -37t64 -112q0 -65 -48 -103t-117 -51zM272 677q-44 0 -67.5 -36t-23.5 -85q0 -47 29.5 -82.5
t113.5 -93.5q30 55 30 154q0 143 -82 143zM259 -12q37 0 60.5 38.5t23.5 90.5q0 43 -25.5 72t-107.5 81q-32 -46 -29 -126q5 -156 78 -156z" />
    <glyph glyph-name="nine" unicode="9" horiz-adv-x="566" 
d="M112 -247q92 30 152 103t83 157.5t23 183.5q0 133 -25.5 204t-68.5 71q-39 0 -62 -61.5t-23 -171.5q0 -192 88 -192q25 0 57 16v-3q-50 -53 -120 -53q-79 0 -129.5 64t-50.5 159q0 82 40.5 139.5t96.5 81.5t118 24q99 0 169 -69.5t70 -199.5q0 -168 -118 -297t-300 -159
v3z" />
    <glyph glyph-name="colon" unicode=":" horiz-adv-x="225" 
d="M113 265q-37 0 -62 25.5t-25 60.5q0 36 25.5 61.5t61.5 25.5t61 -25.5t25 -61.5q0 -35 -25 -60.5t-61 -25.5zM113 -15q-37 0 -62 25.5t-25 60.5q0 36 25.5 61.5t61.5 25.5t61 -25.5t25 -61.5q0 -35 -25 -60.5t-61 -25.5z" />
    <glyph glyph-name="semicolon" unicode=";" horiz-adv-x="216" 
d="M104 265q-36 0 -61.5 25.5t-25.5 60.5q0 36 25.5 61.5t61.5 25.5t61 -25.5t25 -61.5q0 -35 -25 -60.5t-61 -25.5zM153 163q-70 -5 -123 -61q21 -46 21 -100q0 -41 -16 -93t-42 -68v-3q76 17 128 78.5t52 137.5q0 60 -20 109z" />
    <glyph glyph-name="less" unicode="&#x3c;" 
d="M505 426v-56l-331 -140l331 -140v-56l-410 175v42z" />
    <glyph glyph-name="equal" unicode="=" 
d="M505 275h-410v50h410v-50zM505 135h-410v50h410v-50z" />
    <glyph glyph-name="greater" unicode="&#x3e;" 
d="M95 426l410 -175v-42l-410 -175v56l331 140l-331 140v56z" />
    <glyph glyph-name="question" unicode="?" horiz-adv-x="395" 
d="M288 190q-88 -7 -141.5 23t-53.5 97q0 32 15 61t31.5 45t47.5 41q48 39 64 61t16 58q0 43 -18 72t-53 29q-50 0 -91.5 -56.5t-49.5 -120.5h-3v153q73 27 157 27q94 0 143.5 -39t49.5 -105q0 -35 -16 -65t-32.5 -45.5t-48.5 -40.5q-26 -21 -41 -35t-28.5 -36.5
t-13.5 -44.5q0 -30 20 -53t46 -23v-3zM203 -15q-37 0 -62 25.5t-25 60.5q0 36 25.5 61.5t61.5 25.5t61 -25.5t25 -61.5q0 -35 -25 -60.5t-61 -25.5z" />
    <glyph glyph-name="at" unicode="@" horiz-adv-x="884" 
d="M550 54q-30 39 -11 213h-2q-17 -86 -69 -149.5t-111 -63.5q-38 0 -64 28.5t-26 89.5q0 110 80.5 199t164.5 89q27 0 55 -13l105 13q-19 -203 -19 -297q0 -49 30 -49q43 0 97.5 66.5t54.5 168.5q0 128 -91 203t-224 75q-85 0 -152 -33t-107.5 -88.5t-61.5 -121.5t-21 -138
q0 -51 10 -99.5t40 -100.5t77.5 -88t129 -55t186.5 -10v-3q-138 -23 -243 -6.5t-176 65.5t-107.5 119t-36.5 154q0 80 34 154.5t92.5 130.5t143 89.5t179.5 33.5q146 0 238.5 -75t92.5 -206q0 -76 -31.5 -142t-98.5 -109.5t-158 -43.5zM429 109q39 0 77.5 74.5t38.5 196.5
q0 45 -6.5 61t-23.5 16q-33 0 -61.5 -45.5t-42.5 -106.5t-14 -118q0 -78 32 -78z" />
    <glyph glyph-name="A" unicode="A" horiz-adv-x="688" 
d="M598 100q29 -65 40 -80t35 -17v-3h-274v3q73 4 33 97l-71 164q-2 -12 -19 -12h-142q-25 0 -33 -20l-43 -102q-16 -40 12.5 -82.5t73.5 -44.5v-3h-191v3q21 2 52 43t49 84l191 456q26 60 34 92h3q22 -60 36 -92zM337 255q14 0 18.5 5t-1.5 20l-84 194h-2l-96 -229
q9 10 28 10h137z" />
    <glyph glyph-name="B" unicode="B" horiz-adv-x="721" 
d="M480 387q93 -10 143 -55.5t50 -122.5q0 -92 -71.5 -150.5t-210.5 -58.5h-333v3q31 2 43 16.5t12 60.5v505q0 47 -14 61t-56 16v3h70q57 0 139.5 2.5t134.5 2.5q116 0 174.5 -37t58.5 -102q0 -53 -37.5 -90.5t-102.5 -51.5v-2zM273 605v-272q9 34 62 38q115 7 115 150
q0 70 -31 108t-73 38q-44 0 -58.5 -12t-14.5 -50zM332 3q171 0 171 205q0 160 -148 160q-82 0 -82 -59v-249q0 -35 11 -46t48 -11z" />
    <glyph glyph-name="C" unicode="C" horiz-adv-x="706" 
d="M417 -15q-159 0 -259 93.5t-100 244.5q0 161 110 259t270 98q119 0 199 -37v-158h-3q-27 95 -86 142.5t-117 47.5q-203 0 -203 -318q0 -171 50.5 -269t146.5 -98q79 0 146 66t87 164h3l-8 -152q-76 -83 -236 -83z" />
    <glyph glyph-name="D" unicode="D" horiz-adv-x="791" 
d="M58 0v3q31 2 43 16.5t12 60.5v505q0 47 -14 61t-56 16v3h70q35 0 112 2.5t118 2.5q182 0 286 -76.5t104 -240.5q0 -89 -33 -158.5t-88.5 -111t-121 -62.5t-135.5 -21h-297zM333 3q55 0 100 28.5t72.5 76t42.5 107t15 123.5q0 150 -63 239.5t-157 89.5q-42 0 -56 -12
t-14 -50v-545q0 -35 11.5 -46t48.5 -11z" />
    <glyph glyph-name="E" unicode="E" horiz-adv-x="630" 
d="M58 0v3q31 2 43 16.5t12 60.5v505q0 47 -14 61t-56 16v3h491v-140h-3q-10 73 -46 105t-108 32h-60q-23 0 -33.5 -12t-10.5 -45v-262q12 20 47 20h77q94 0 111 84h3v-170h-3q-8 49 -35 66t-76 17h-75q-28 0 -38.5 -9t-10.5 -35v-256q0 -35 15 -46t61 -11h75q150 0 174 162
h3l-8 -165h-535z" />
    <glyph glyph-name="F" unicode="F" horiz-adv-x="572" 
d="M58 0v3q31 2 43 16.5t12 60.5v505q0 47 -14 61t-56 16v3h481v-140h-3q-10 73 -46 105t-108 32h-50q-23 0 -33.5 -12t-10.5 -45v-282q12 20 47 20h77q94 0 111 84h3v-170h-3q-8 49 -35 66t-76 17h-75q-28 0 -38.5 -9t-10.5 -35v-216q0 -48 15.5 -61.5t64.5 -15.5v-3h-295z
" />
    <glyph glyph-name="G" unicode="G" horiz-adv-x="740" 
d="M392 -15q-144 0 -239 93t-95 243q0 168 109 263.5t271 95.5q105 0 199 -37v-153h-3q-48 185 -202 185q-104 0 -154 -77t-50 -239q0 -172 52 -270t140 -98q71 0 93 36q14 22 14 107q0 102 -14.5 140t-60.5 41v3h250v-3q-15 -2 -20 -15t-5 -52v-58q0 -67 8 -101
q-35 -35 -114 -69.5t-179 -34.5z" />
    <glyph glyph-name="H" unicode="H" horiz-adv-x="831" 
d="M718 80q0 -47 14 -61t56 -16v-3h-285v3q31 2 43 16.5t12 60.5v316q-12 -21 -47 -21h-189q-28 0 -38.5 -9t-10.5 -35v-251q0 -47 14 -61t56 -16v-3h-285v3q31 2 43 16.5t12 60.5v505q0 47 -14 61t-56 16v3h285v-3q-31 -2 -43 -16.5t-12 -60.5v-227q12 20 47 20h189
q28 0 38.5 9.5t10.5 35.5v162q0 47 -14 61t-56 16v3h285v-3q-31 -2 -43 -16.5t-12 -60.5v-505z" />
    <glyph glyph-name="I" unicode="I" horiz-adv-x="396" 
d="M278 80q0 -47 14 -61t56 -16v-3h-285v3q31 2 43 16.5t12 60.5v505q0 47 -14 61t-56 16v3h285v-3q-31 -2 -43 -16.5t-12 -60.5v-505z" />
    <glyph glyph-name="J" unicode="J" horiz-adv-x="369" 
d="M50 665h285v-3q-31 -2 -43 -16.5t-12 -60.5v-585q0 -106 -66.5 -165.5t-173.5 -59.5v3q80 31 80 222v585q0 47 -14 61t-56 16v3z" />
    <glyph glyph-name="K" unicode="K" horiz-adv-x="758" 
d="M657 103q56 -79 72 -91q12 -9 24 -9v-3q-41 -15 -101 -15q-62 0 -99.5 27.5t-72.5 78.5l-151 223q-18 26 -33 26q-23 0 -23 -34v-226q0 -47 14 -61t56 -16v-3h-285v3q31 2 43 16.5t12 60.5v505q0 47 -14 61t-56 16v3h285v-3q-31 -2 -43 -16.5t-12 -60.5v-252h2l223 190
q47 40 47 89q0 46 -80 50v3h237v-3q-47 -8 -134 -82l-140 -120q-15 -12 0 -33z" />
    <glyph glyph-name="L" unicode="L" horiz-adv-x="577" 
d="M558 165h3l-8 -165h-495v3q31 2 43 16.5t12 60.5v505q0 47 -14 61t-56 16v3h285v-3q-31 -2 -43 -16.5t-12 -60.5v-525q0 -35 15 -46t61 -11h45q78 0 118.5 45.5t45.5 116.5z" />
    <glyph glyph-name="M" unicode="M" horiz-adv-x="954" 
d="M400 -8q-18 50 -50 112l-228 436h-2l-18 -410q-2 -43 24.5 -80.5t93.5 -46.5v-3h-177v3q26 9 40 47t16 80l18 410q5 114 -68 122v3h202q14 -43 42 -100l188 -369h2l136 369q32 89 35 100h212v-3q-33 -2 -45 -15.5t-10 -61.5l21 -505q2 -47 16 -61t54 -16v-3h-285v3
q34 2 45 16.5t10 60.5l-21 558h-2l-197 -534q-8 -20 -17.5 -44t-15 -39t-9.5 -29h-10z" />
    <glyph glyph-name="N" unicode="N" horiz-adv-x="725" 
d="M635 -8q-46 49 -82 78l-435 365h-2v-305q0 -19 5 -37.5t17 -38t36.5 -33.5t59.5 -18v-3h-176v3q27 8 41 47.5t14 79.5v385q0 131 -70 147v3h70q22 -28 71 -70l447 -375h2v315q0 19 -5 37.5t-17 38t-36.5 33.5t-59.5 18v3h176v-3q-27 -8 -41 -47.5t-14 -79.5v-435
q0 -70 2 -108h-3z" />
    <glyph glyph-name="O" unicode="O" horiz-adv-x="795" 
d="M398 680q144 0 241.5 -95.5t97.5 -250.5t-97.5 -252t-242.5 -97q-144 0 -241.5 95.5t-97.5 250.5t97.5 252t242.5 97zM418 -10q149 0 149 310q0 184 -52.5 279.5t-137.5 95.5q-149 0 -149 -310q0 -184 52.5 -279.5t137.5 -95.5z" />
    <glyph glyph-name="P" unicode="P" horiz-adv-x="653" 
d="M58 0v3q31 2 43 16.5t12 60.5v505q0 47 -14 61t-56 16v3h70q55 0 136.5 2.5t96.5 2.5q124 0 194 -48t70 -118q0 -83 -80 -133.5t-237 -37.5v3q68 -3 107.5 50.5t39.5 118.5q0 82 -29 122t-78 40q-34 0 -47 -12t-13 -50v-525q0 -48 15.5 -61.5t64.5 -15.5v-3h-295z" />
    <glyph glyph-name="Q" unicode="Q" horiz-adv-x="795" 
d="M1503 -125l3 -2q-203 -185 -517 -181q-212 2 -388.5 87.5t-282.5 213.5q-115 25 -187.5 115.5t-72.5 222.5q0 155 97.5 252t242.5 97q144 0 241.5 -95.5t97.5 -250.5q0 -122 -62 -209.5t-164 -121.5q90 -107 243 -184t315 -77q104 0 224 30t210 103zM377 675
q-149 0 -149 -310q0 -184 52.5 -279.5t137.5 -95.5q149 0 149 310q0 184 -52.5 279.5t-137.5 95.5z" />
    <glyph glyph-name="R" unicode="R" horiz-adv-x="728" 
d="M642 -15q-63 0 -102.5 27.5t-69.5 78.5l-140 238q-15 26 -37 28v3q78 6 110 43t32 103q0 72 -29 116.5t-73 44.5q-34 0 -47 -12t-13 -50v-525q0 -47 14 -61t56 -16v-3h-285v3q31 2 43 16.5t12 60.5v505q0 47 -14 61t-56 16v3h70q55 0 136.5 2.5t96.5 2.5q259 0 259 -145
q0 -58 -35.5 -96.5t-88.5 -53.5v-2l166 -270q35 -57 56 -78.5t40 -21.5v-3q-41 -15 -101 -15z" />
    <glyph glyph-name="S" unicode="S" 
d="M277 -15q-89 0 -151.5 32.5t-62.5 102.5t65 100h3q2 -105 41.5 -168.5t106.5 -63.5q58 0 85.5 36t27.5 87q0 40 -17.5 71t-45 52t-61 39.5t-67.5 37.5t-61.5 41.5t-45 57t-17.5 78.5q0 90 69 141t185 51q93 0 172 -27v-158h-3q-22 102 -70 142t-103 40q-54 0 -79.5 -31.5
t-25.5 -75.5q0 -36 17.5 -64.5t45 -48t61 -37t67.5 -37.5t61.5 -44t45 -61.5t17.5 -84.5q0 -100 -72 -154t-188 -54z" />
    <glyph glyph-name="T" unicode="T" horiz-adv-x="636" 
d="M33 665h570v-165h-3q-14 87 -49.5 124.5t-111.5 37.5h-41v-582q0 -47 14 -61t56 -16v-3h-285v3q31 2 43 16.5t12 60.5v582h-42q-75 0 -110.5 -38t-49.5 -124h-3v165z" />
    <glyph glyph-name="U" unicode="U" horiz-adv-x="826" 
d="M703 70q0 -40 14 -52.5t56 -14.5v-3h-213q-12 32 -12 100v170h-2q-3 -128 -71 -206.5t-161 -78.5q-98 0 -149.5 55.5t-51.5 147.5v397q0 47 -14 61t-56 16v3h285v-3q-31 -2 -43 -16.5t-12 -60.5v-407q0 -57 25.5 -87.5t75.5 -30.5q73 0 121 60t48 152v313q0 47 -14 61
t-56 16v3h285v-3q-31 -2 -43 -16.5t-12 -60.5v-515z" />
    <glyph glyph-name="V" unicode="V" horiz-adv-x="636" 
d="M337 -8q-12 38 -30 77l-233 496q-6 13 -13 28l-10.5 22.5t-7.5 16t-6.5 12.5t-6 8t-7 5.5t-8 2.5t-10.5 2v3h282v-3q-39 -2 -49.5 -28t10.5 -69l165 -356h2l122 326q19 50 -8.5 87.5t-91.5 39.5v3h183v-3q-33 -4 -80 -127l-175 -466q-3 -9 -25 -77h-3z" />
    <glyph glyph-name="W" unicode="W" horiz-adv-x="923" 
d="M285 -8q-7 27 -25 77l-188 496q-3 7 -7.5 20t-7 18.5t-6 15t-6 14t-6.5 10.5t-7.5 9t-8 6t-9.5 4v3h267v-3q-33 -2 -43.5 -27.5t4.5 -69.5l123 -335h2l159 443h3q16 -46 48 -108l171 -335h2l94 305q15 50 -12 87.5t-84 39.5v3h171v-3q-32 -3 -71 -127l-144 -466
q-6 -20 -20 -77h-3q-12 43 -28 77l-192 406h-2l-146 -406q-15 -42 -25 -77h-3z" />
    <glyph glyph-name="X" unicode="X" horiz-adv-x="677" 
d="M3 0v3q30 1 69 42t65 91l95 179q16 33 3 52l-127 198q-51 79 -61 88q-10 7 -21 9v3h295v-3q-37 -2 -45.5 -29t17.5 -68l114 -179h2l80 144q23 41 16.5 70t-27 44.5t-46.5 17.5v3h171v-3q-17 -2 -47 -37t-63 -95l-71 -128q-13 -22 7 -53l159 -249q40 -62 54.5 -79
t31.5 -18v-3h-304v3q40 2 49.5 28.5t-16.5 68.5l-152 240h-2l-108 -204q-25 -44 -0.5 -87.5t82.5 -45.5v-3h-220z" />
    <glyph glyph-name="Y" unicode="Y" horiz-adv-x="631" 
d="M428 665h187v-3q-22 -2 -51 -34.5t-55 -82.5l-93 -178q-19 -36 -19 -68v-219q0 -47 14 -61t56 -16v-3h-285v3q31 2 43 16.5t12 60.5v189q0 37 -17 68l-129 228q-37 67 -49 81t-37 16v3h296v-3q-84 -4 -31 -97l128 -222h2l105 202q25 47 -2 81t-75 36v3z" />
    <glyph glyph-name="Z" unicode="Z" horiz-adv-x="669" 
d="M48 0v3q24 30 36 52l328 602v2l-185 -17q-62 -6 -90 -34.5t-38 -107.5h-2v165h506v-3q-24 -32 -35 -52l-330 -603v-2l215 18q75 6 109.5 38t45.5 104h3l-8 -165h-555z" />
    <glyph glyph-name="bracketleft" unicode="[" horiz-adv-x="316" 
d="M303 -180h-210v920h210v-3q-54 -2 -69.5 -14.5t-15.5 -62.5v-760q0 -50 15.5 -62.5t69.5 -14.5v-3z" />
    <glyph glyph-name="backslash" unicode="\" horiz-adv-x="330" 
d="M4 790l326 -940h-4l-326 940h4z" />
    <glyph glyph-name="bracketright" unicode="]" horiz-adv-x="316" 
d="M13 740h210v-920h-210v3q54 2 69.5 14.5t15.5 62.5v760q0 50 -15.5 62.5t-69.5 14.5v3z" />
    <glyph glyph-name="asciicircum" unicode="^" horiz-adv-x="488" 
d="M440 255h-56l-140 336l-140 -336h-56l175 410h42z" />
    <glyph glyph-name="underscore" unicode="_" horiz-adv-x="395" 
d="M395 -3h-395v3h395v-3z" />
    <glyph glyph-name="a" unicode="a" horiz-adv-x="534" 
d="M539 77l2 -1q-45 -91 -138 -91q-95 0 -115 81h-2q-23 -39 -60.5 -60t-79.5 -21q-53 0 -80.5 31.5t-27.5 77.5q0 61 59.5 99.5t188.5 65.5v105q0 103 -68 103q-43 0 -78.5 -51.5t-60.5 -125.5h-3v138q92 47 197 47q173 0 173 -134v-238q0 -48 39 -48q29 0 54 22zM286 69
v187q-108 -33 -108 -139q0 -67 56 -67q20 0 52 19z" />
    <glyph glyph-name="b" unicode="b" horiz-adv-x="595" 
d="M384 475q75 0 128 -62.5t53 -166.5q0 -68 -25 -120.5t-66 -82t-87 -44t-95 -14.5q-78 0 -137 24l-80 -19v677q0 30 -25 30q-18 0 -44 -10l-1 2l221 101l3 -3q-4 -40 -4 -129v-278q20 42 62 68.5t97 26.5zM301 -10q46 0 75 55t29 158q0 104 -28.5 153t-75.5 49
q-46 0 -76 -30v-298q23 -87 76 -87z" />
    <glyph glyph-name="c" unicode="c" horiz-adv-x="486" 
d="M257 -15q-98 0 -162.5 65t-64.5 173q0 64 25 114.5t66 79.5t87.5 43.5t95.5 14.5q94 0 141 -32v-153h-3q-12 95 -54 138.5t-87 43.5q-50 0 -80.5 -51t-30.5 -136q0 -94 38 -139.5t106 -45.5q78 0 125 46l3 -3q-32 -75 -80 -116.5t-125 -41.5z" />
    <glyph glyph-name="d" unicode="d" horiz-adv-x="603" 
d="M579 78l1 -2l-211 -97l-3 3q7 28 7 100h-2q-20 -43 -62 -70t-98 -27q-75 0 -128 62.5t-53 166.5q0 68 25 120.5t66 82t87 44t95 14.5q31 0 67 -4v196q0 30 -25 30q-18 0 -44 -10l-1 2l221 101l3 -3q-4 -40 -4 -129v-563q0 -25 22 -25q18 0 37 8zM294 55q46 0 76 30v298
q-23 87 -76 87q-46 0 -75 -55t-29 -158q0 -104 28.5 -153t75.5 -49z" />
    <glyph glyph-name="e" unicode="e" horiz-adv-x="504" 
d="M474 136l3 -3q-61 -148 -208 -148q-105 0 -172 65t-67 176q0 116 73.5 182.5t187.5 66.5q84 0 132 -43t48 -116l-296 -37q8 -179 155 -179q94 0 144 36zM257 470q-38 0 -60 -45t-22 -124v-19l146 18q0 86 -14 128t-50 42z" />
    <glyph glyph-name="f" unicode="f" horiz-adv-x="347" 
d="M414 790q6 -34 6 -82t-6 -82h-3q-9 76 -36 116.5t-56 40.5q-26 0 -43 -20.5t-27 -75t-10 -144.5v-83h130v-3h-90q-40 0 -40 -40v-327q0 -56 14 -70.5t66 -16.5v-3h-275v3q27 2 36 17.5t9 69.5v367h-60v3h60v48q0 144 91.5 219.5t233.5 62.5z" />
    <glyph glyph-name="g" unicode="g" horiz-adv-x="533" 
d="M417 89q108 -17 108 -104q0 -36 -19.5 -73t-57.5 -70.5t-103.5 -55t-147.5 -21.5q-172 0 -172 94q0 75 102 104l3 -1q-17 -38 -17 -74q0 -49 31 -83.5t91 -34.5q67 0 116 40t49 87q0 50 -78 62l-203 31q-59 10 -59 71q0 75 80 126q-100 38 -100 134q0 72 59.5 115
t152.5 43q82 0 136 -33q38 0 50.5 44t-13.5 85h3q97 -10 97 -72q0 -38 -36.5 -55t-94.5 -6q63 -42 63 -115q0 -72 -59.5 -115t-152.5 -43q-56 0 -102 17q-23 -15 -23 -32q0 -19 22 -22zM244 476q-64 0 -64 -143q0 -80 20 -120.5t53 -40.5q64 0 64 143q0 80 -20 120.5
t-53 40.5z" />
    <glyph glyph-name="h" unicode="h" horiz-adv-x="613" 
d="M532 90q0 -55 11 -70t49 -17v-3h-255v3q27 2 36 17.5t9 69.5v251q0 33 -10.5 49.5t-42.5 16.5q-47 0 -97 -32v-285q0 -55 11 -70t49 -17v-3h-255v3q27 2 36 17.5t9 69.5v577q0 30 -25 30q-18 0 -44 -10l-1 2l221 101l3 -3q-4 -40 -4 -129v-280q86 97 180 97q62 0 91 -30
t29 -94v-261z" />
    <glyph glyph-name="i" unicode="i" horiz-adv-x="316" 
d="M163 530q-37 0 -62 25t-25 61t25.5 61.5t61.5 25.5t61 -25.5t25 -61.5q0 -35 -25 -60.5t-61 -25.5zM233 90q0 -55 11 -70t49 -17v-3h-255v3q27 2 36 17.5t9 69.5v269q0 29 -25 29q-18 0 -44 -10l-1 2l221 103l3 -3q-4 -40 -4 -131v-259z" />
    <glyph glyph-name="j" unicode="j" horiz-adv-x="310" 
d="M161 530q-37 0 -62 25t-25 61t25.5 61.5t61.5 25.5t61 -25.5t25 -61.5q0 -35 -25 -60.5t-61 -25.5zM232 483l3 -3q-4 -40 -4 -131v-344q0 -104 -54.5 -169.5t-169.5 -66.5v3q44 27 59 80.5t15 167.5v339q0 29 -25 29q-18 0 -44 -10l-1 2z" />
    <glyph glyph-name="k" unicode="k" horiz-adv-x="587" 
d="M506 103q34 -65 47 -82.5t29 -17.5v-3q-33 -15 -79 -15q-99 0 -142 77l-86 156l-43 -44v-84q0 -55 11 -70t49 -17v-3h-255v3q27 2 36 17.5t9 69.5v577q0 30 -25 30q-18 0 -44 -10l-1 2l221 101l3 -3q-4 -40 -4 -129v-477h2l147 151q23 23 23 66q0 52 -71 59v3h212v-3
q-27 -2 -51 -20t-58 -53l-51 -53z" />
    <glyph glyph-name="l" unicode="l" horiz-adv-x="315" 
d="M232 90q0 -55 11 -70t49 -17v-3h-255v3q27 2 36 17.5t9 69.5v577q0 30 -25 30q-18 0 -44 -10l-1 2l221 101l3 -3q-4 -40 -4 -129v-568z" />
    <glyph glyph-name="m" unicode="m" horiz-adv-x="894" 
d="M813 90q0 -55 11 -70t49 -17v-3h-255v3q27 2 36 17.5t9 69.5v251q0 34 -12 50t-41 16q-43 0 -87 -32v-285q0 -55 11 -70t49 -17v-3h-255v3q27 2 36 17.5t9 69.5v251q0 34 -12 50t-41 16q-43 0 -87 -32v-285q0 -54 10 -69.5t40 -17.5v-3h-245v3q27 2 36 17.5t9 69.5v275
q0 25 -22 25q-18 0 -37 -8l-1 2l211 97l3 -3q-7 -28 -7 -100h3q75 97 170 97q62 0 91 -23.5t29 -73.5q75 97 170 97q62 0 91 -30t29 -94v-261z" />
    <glyph glyph-name="n" unicode="n" horiz-adv-x="614" 
d="M533 90q0 -55 11 -70t49 -17v-3h-255v3q27 2 36 17.5t9 69.5v251q0 33 -10.5 49.5t-42.5 16.5q-47 0 -97 -32v-285q0 -55 11 -70t49 -17v-3h-255v3q27 2 36 17.5t9 69.5v275q0 25 -22 25q-18 0 -37 -8l-1 2l211 97l3 -3q-7 -28 -7 -100h3q86 97 180 97q62 0 91 -30
t29 -94v-261z" />
    <glyph glyph-name="o" unicode="o" horiz-adv-x="570" 
d="M292 475q110 0 179 -66t69 -173q0 -114 -77 -182.5t-185 -68.5q-110 0 -179 66t-69 173q0 114 77 182.5t185 68.5zM295 -10q85 0 85 210q0 124 -28.5 197t-76.5 73q-85 0 -85 -210q0 -124 28.5 -197t76.5 -73z" />
    <glyph glyph-name="p" unicode="p" horiz-adv-x="601" 
d="M298 -15q-31 0 -67 4v-124q0 -55 12.5 -70t57.5 -17v-3h-265v3q27 2 36 17.5t9 69.5v500q0 25 -22 25q-18 0 -37 -8l-1 2l211 97l3 -3q-7 -28 -7 -100h2q20 43 62 70t98 27q75 0 128 -62.5t53 -166.5q0 -68 -25 -120.5t-66 -82t-87 -44t-95 -14.5zM307 405q-46 0 -76 -30
v-298q23 -87 76 -87q46 0 75 55t29 158q0 104 -28.5 153t-75.5 49z" />
    <glyph glyph-name="q" unicode="q" horiz-adv-x="586" 
d="M589 -142l1 -2l-221 -101l-3 3q4 40 4 129v193q-20 -42 -62 -68.5t-97 -26.5q-75 0 -128 62.5t-53 166.5q0 68 25 120.5t66 82t87 44t95 14.5q78 0 137 -24l80 19v-592q0 -30 25 -30q18 0 44 10zM294 55q46 0 76 30v298q-23 87 -76 87q-46 0 -75 -55t-29 -158
q0 -104 28.5 -153t75.5 -49z" />
    <glyph glyph-name="r" unicode="r" horiz-adv-x="425" 
d="M416 475q7 -80 0 -160h-3q-7 37 -32 55.5t-51 18.5q-60 0 -97 -36v-263q0 -55 12.5 -70t57.5 -17v-3h-265v3q27 2 36 17.5t9 69.5v275q0 25 -22 25q-18 0 -37 -8l-1 2l211 97l3 -3q-7 -28 -7 -122h3q82 126 183 119z" />
    <glyph glyph-name="s" unicode="s" horiz-adv-x="440" 
d="M199 -15q-76 0 -121 27t-45 75t51 83h3q-1 -73 31.5 -127.5t88.5 -54.5q36 0 56 24t20 58q0 35 -24.5 61t-60 43t-71 35.5t-60 49.5t-24.5 73q0 66 54 104.5t144 38.5q79 0 137 -17v-143h-2q-42 157 -134 157q-34 0 -51.5 -20.5t-17.5 -48.5q0 -31 24.5 -55t59.5 -41.5
t70.5 -36.5t60 -52.5t24.5 -78.5q0 -74 -60 -114t-153 -40z" />
    <glyph glyph-name="t" unicode="t" horiz-adv-x="384" 
d="M377 89l3 -3q-46 -101 -151 -101q-69 0 -107 41t-38 109v322h-60v3h60v135l155 15q-5 -64 -5 -150h130v-3h-90q-40 0 -40 -40v-272q0 -80 71 -80q48 0 72 24z" />
    <glyph glyph-name="u" unicode="u" horiz-adv-x="604" 
d="M582 78l1 -2l-211 -97l-3 3q7 28 7 100h-3q-86 -97 -175 -97q-62 0 -91 30t-29 94v256q0 25 -22 25q-18 0 -37 -8l-1 2l211 97l3 -3q-4 -40 -4 -129v-228q0 -33 10 -50.5t38 -17.5q45 0 97 33v279q0 25 -22 25q-18 0 -37 -8l-1 2l211 97l3 -3q-4 -40 -4 -129v-254
q0 -25 22 -25q18 0 37 8z" />
    <glyph glyph-name="v" unicode="v" horiz-adv-x="485" 
d="M252 -10q-18 45 -36 79l-151 291q-31 59 -45 77t-31 20v3h261v-3q-36 -2 -43 -31t14 -66l105 -200h2l76 170q12 31 13.5 58.5t-18.5 47.5t-58 21v3h149v-3q-5 0 -10 -2.5t-10 -7.5t-9 -10t-9 -14t-8.5 -15t-9 -18t-8.5 -19t-9 -20.5t-9 -20.5l-118 -261q-21 -48 -30 -79
h-8z" />
    <glyph glyph-name="w" unicode="w" horiz-adv-x="735" 
d="M587 460h153v-3q-39 -4 -88 -127l-103 -261q-20 -53 -28 -79h-3q-23 58 -34 79l-112 228l-113 -228q-28 -59 -33 -79h-3q-10 30 -33 79l-136 291q-28 60 -40 77.5t-25 19.5v3h251v-3q-20 -1 -28.5 -14.5t-6 -34.5t15.5 -48l87 -181h2l60 122l-29 59q-31 64 -40.5 79.5
t-20.5 17.5v3h242v-3q-35 -2 -38 -28t19 -69l83 -181h2l61 151q49 124 -62 127v3z" />
    <glyph glyph-name="x" unicode="x" horiz-adv-x="557" 
d="M460 100q42 -60 57 -78t27 -19v-3h-281v3q12 1 21.5 6t15.5 15.5t0.5 30t-23.5 45.5l-82 116l-62 -96q-22 -34 -3 -75t60 -42v-3h-168v3q17 1 48.5 38t58.5 79l64 100l-99 140q-43 61 -57 78t-26 19v3h280v-3q-26 -2 -34.5 -25.5t20.5 -71.5l79 -112l61 92q17 26 21 51
t-14.5 45t-63.5 21v3h178v-3q-42 -2 -117 -117l-63 -96z" />
    <glyph glyph-name="y" unicode="y" horiz-adv-x="493" 
d="M84 -225q-41 0 -61 24.5t-20 57.5q0 55 46 93h3q3 -43 17.5 -64t55.5 -21q33 0 61 21t58 81l-189 393q-5 10 -11 22.5t-9 19.5t-7.5 15.5t-7 12.5t-5.5 9.5t-5 7.5t-5 4.5t-6 3.5l-6 2v3h253v-3q-36 -2 -41.5 -30t14.5 -67l102 -216h2l95 216q17 38 -7.5 66.5t-73.5 30.5
v3h161v-3q-35 -3 -76 -97l-124 -281q-82 -187 -120.5 -245.5t-93.5 -58.5z" />
    <glyph glyph-name="z" unicode="z" horiz-adv-x="486" 
d="M18 0v3q11 11 35 52l220 393v2l-118 -10q-35 -3 -62 -39t-36 -101h-3v160h407v-3q-13 -14 -34 -52l-216 -400v-2l134 10q38 3 70.5 45t44.5 107h3l-8 -165h-437z" />
    <glyph glyph-name="braceleft" unicode="{" horiz-adv-x="309" 
d="M306 737q-101 -4 -101 -162q0 -32 5 -86t5 -76q0 -60 -46.5 -90.5t-126.5 -32.5v-2q80 -2 126.5 -32.5t46.5 -90.5q0 -21 -5 -80t-5 -97q0 -161 101 -165v-3q-226 -9 -226 168q0 36 5 96t5 85q0 58 -17.5 87.5t-59.5 31.5v2q42 2 59.5 31.5t17.5 87.5q0 26 -5 81t-5 85
q0 174 226 165v-3z" />
    <glyph glyph-name="bar" unicode="|" horiz-adv-x="139" 
d="M68 790h3v-1015h-3v1015z" />
    <glyph glyph-name="braceright" unicode="}" horiz-adv-x="319" 
d="M219 409q0 -58 17.5 -87.5t59.5 -31.5v-2q-42 -2 -59.5 -31.5t-17.5 -87.5q0 -25 5 -85t5 -96q0 -177 -226 -168v3q101 4 101 165q0 38 -5 97t-5 80q0 60 46.5 90.5t126.5 32.5v2q-80 2 -126.5 32.5t-46.5 90.5q0 22 5 76t5 86q0 158 -101 162v3q226 9 226 -165
q0 -30 -5 -85t-5 -81z" />
    <glyph glyph-name="asciitilde" unicode="~" 
d="M196 239q-29 0 -44.5 -15.5t-23.5 -48.5l-33 5q6 51 34 75t70 24q37 0 106 -32t98 -32t44.5 15.5t23.5 48.5l34 -5q-6 -45 -36 -72t-69 -27q-37 0 -106 32t-98 32z" />
    <glyph glyph-name="exclamdown" unicode="&#xa1;" horiz-adv-x="225" 
d="M122 476q36 0 61.5 -25t25.5 -61t-25.5 -61.5t-61.5 -25.5t-61 25.5t-25 61.5q0 35 25 60.5t61 25.5zM124 241q6 -205 65 -445l-163 -42q0 214 95 487h3z" />
    <glyph glyph-name="cent" unicode="&#xa2;" horiz-adv-x="602" 
d="M554 190h3l-8 -132q-65 -73 -204 -73q-40 0 -78 8l-18 -114l-3 1l18 113q-98 21 -152 91t-54 167q0 124 84.5 204t210.5 85l16 99h3l-16 -99h9q75 0 173 -37v-138h-3q-21 81 -69 126.5t-105 45.5h-6l-79 -492q36 -55 90 -55q59 0 114.5 56t73.5 144zM223 289
q0 -158 50 -240l79 488q-61 -4 -95 -65.5t-34 -182.5z" />
    <glyph glyph-name="sterling" unicode="&#xa3;" horiz-adv-x="511" 
d="M479 175h3l-10 -175h-432v3q86 59 86 154q0 35 -20 86t-23 64h-65v3h64q-6 23 -6 50q0 90 66.5 142.5t172.5 52.5q78 0 157 -27v-138h-3q-21 75 -67 118.5t-91 43.5q-46 0 -68 -41t-22 -107q0 -36 15 -94h132v-3h-131q14 -50 14 -79q0 -43 -28.5 -67.5t-96.5 -37.5v-3
h228q117 0 125 55z" />
    <glyph glyph-name="currency" unicode="&#xa4;" horiz-adv-x="674" 
d="M612 315q0 -101 -64 -176l68 -68l-35 -35l-68 68q-75 -64 -176 -64t-176 64l-68 -68l-35 35l68 68q-64 75 -64 176t64 176l-68 68l35 35l68 -68q75 64 176 64t176 -64l68 68l35 -35l-68 -68q64 -75 64 -176zM337 90q90 0 155 66.5t65 158.5t-65 158.5t-155 66.5
t-155 -66.5t-65 -158.5t65 -158.5t155 -66.5z" />
    <glyph glyph-name="yen" unicode="&#xa5;" horiz-adv-x="563" 
d="M372 525h175v-3q-17 -2 -34 -24t-47 -73l-94 -162q-11 -19 -14 -28h115v-3h-116q-4 -20 -4 -37v-80h120v-3h-120v-32q0 -47 12.5 -61t47.5 -16v-3h-260v3q24 2 34.5 16.5t10.5 60.5v32h-115v3h115v70q0 29 -6 47h-109v3h108l-10 18l-100 172q-46 79 -54.5 87t-21.5 10v3
h271v-3q-72 -4 -21 -97l100 -182h2l106 182q23 40 -8 67.5t-83 29.5v3z" />
    <glyph glyph-name="brokenbar" unicode="&#xa6;" horiz-adv-x="139" 
d="M68 790h3v-315h-3v315zM68 90h3v-315h-3v315z" />
    <glyph glyph-name="section" unicode="&#xa7;" 
d="M537 191q0 -73 -44 -125q44 -52 44 -110q0 -80 -71 -130.5t-188 -50.5q-90 0 -152.5 32.5t-62.5 102.5q0 54 35 100h3q4 -81 54.5 -156.5t131.5 -75.5q60 0 92.5 41t32.5 85q0 34 -25 64t-62 51t-80.5 48t-80.5 53t-62 68t-25 92q0 75 52 124q-52 54 -52 110
q0 72 68.5 119t184.5 47q94 0 173 -27v-158h-3q-25 81 -75 131.5t-111 50.5q-53 0 -82.5 -36t-29.5 -73q0 -29 25 -55.5t62 -46.5t80.5 -47.5t80.5 -56t62 -73.5t25 -98zM491 68q6 51 -34.5 98.5t-94.5 79.5t-124.5 76t-106.5 80q-5 -38 19.5 -73t69 -65.5t92 -59t99 -65
t80.5 -71.5z" />
    <glyph glyph-name="copyright" unicode="&#xa9;" horiz-adv-x="811" 
d="M406 -15q-144 0 -246 102t-102 246q0 143 102 245t246 102q143 0 245 -102t102 -245q0 -144 -102 -246t-245 -102zM406 -12q141 0 242.5 100.5t101.5 244.5q0 143 -101.5 243.5t-242.5 100.5q-142 0 -243.5 -100.5t-101.5 -243.5q0 -144 101.5 -244.5t243.5 -100.5z
M433 135q-95 0 -149.5 53.5t-54.5 135.5q0 91 63 148.5t155 57.5q56 0 123 -27v-98h-2q-15 58 -49 90.5t-74 32.5q-46 0 -72.5 -44t-26.5 -133q0 -54 9.5 -100t33.5 -79t59 -33q42 0 81.5 40t52.5 102h2l-6 -94q-46 -52 -145 -52z" />
    <glyph glyph-name="guillemotleft" unicode="&#xab;" horiz-adv-x="390" 
d="M130 259q0 -4 10 -24l94 -164l-4 -3l-215 190v2l215 190l4 -3l-94 -164q-10 -17 -10 -24zM313 259q0 -8 7 -24l55 -134l-3 -3l-159 160v2l159 160l3 -3l-55 -134q-7 -16 -7 -24z" />
    <glyph glyph-name="logicalnot" unicode="&#xac;" 
d="M520 350v-200h-50v150h-380v50h430z" />
    <glyph glyph-name="registered" unicode="&#xae;" horiz-adv-x="755" 
d="M378 -15q-144 0 -246 102t-102 246q0 143 102 245t246 102q143 0 245 -102t102 -245q0 -144 -102 -246t-245 -102zM378 -12q141 0 242.5 100.5t101.5 244.5q0 143 -101.5 243.5t-242.5 100.5q-142 0 -243.5 -100.5t-101.5 -243.5q0 -144 101.5 -244.5t243.5 -100.5z
M562 135q-31 0 -54.5 12t-34.5 25t-27 39l-59 91q-16 27 -24 27v2q41 5 56.5 27.5t15.5 67.5q0 95 -55 95q-16 0 -24 -12t-8 -47v-259q0 -33 9 -43t34 -12v-2h-185v2q17 2 24.5 12.5t7.5 42.5v259q0 33 -9 43.5t-33 11.5v2h42q39 0 91.5 2t65.5 2q157 0 157 -93
q0 -61 -69 -89v-1l81 -121q29 -42 42 -56.5t26 -14.5v-2q-30 -11 -70 -11z" />
    <glyph glyph-name="degree" unicode="&#xb0;" horiz-adv-x="320" 
d="M160 407q-56 0 -93 37.5t-37 92.5t37 92.5t93 37.5q55 0 92.5 -37.5t37.5 -92.5t-37.5 -92.5t-92.5 -37.5zM160 455q33 0 56 24t23 58t-23 58t-56 24q-34 0 -56.5 -24t-22.5 -58t22.5 -58t56.5 -24z" />
    <glyph glyph-name="plusminus" unicode="&#xb1;" 
d="M325 315h180v-50h-180v-180h-50v180h-180v50h180v180h50v-180zM95 -5v50h410v-50h-410z" />
    <glyph glyph-name="paragraph" unicode="&#xb6;" horiz-adv-x="594" 
d="M490 525h70v-3q-42 -2 -56 -16t-14 -61v-445q0 -103 -69.5 -164t-158.5 -61q-61 0 -99 21q0 28 24.5 52t53.5 25q5 -53 14.5 -73.5t28.5 -20.5q27 0 36.5 45.5t9.5 175.5v151q-131 -14 -209 45.5t-78 149.5q0 75 56 129.5t170 54.5q12 0 89 -2.5t132 -2.5z" />
    <glyph glyph-name="periodcentered" unicode="&#xb7;" horiz-adv-x="225" 
d="M113 265q-37 0 -62 25.5t-25 60.5q0 36 25.5 61.5t61.5 25.5t61 -25.5t25 -61.5q0 -35 -25 -60.5t-61 -25.5z" />
    <glyph glyph-name="guillemotright" unicode="&#xbb;" horiz-adv-x="390" 
d="M260 259q0 7 -10 24l-94 164l4 3l215 -190v-2l-215 -190l-4 3l94 164q10 20 10 24zM77 259q0 8 -7 24l-55 134l3 3l159 -160v-2l-159 -160l-3 3l55 134q7 16 7 24z" />
    <glyph glyph-name="questiondown" unicode="&#xbf;" horiz-adv-x="355" 
d="M172 485q36 0 61.5 -25.5t25.5 -60.5q0 -36 -25.5 -61.5t-61.5 -25.5t-61 25.5t-25 61.5q0 35 25 60.5t61 25.5zM87 280q88 7 141.5 -23t53.5 -97q0 -32 -15 -61t-31.5 -45t-47.5 -41q-48 -39 -64 -61t-16 -58q0 -43 18 -72t53 -29q50 0 91.5 56.5t49.5 120.5h3v-153
q-73 -27 -157 -27q-94 0 -143.5 39t-49.5 105q0 35 16 65t32.5 45.5t48.5 40.5q26 21 41 35t28.5 36.5t13.5 44.5q0 30 -20 53t-46 23v3z" />
    <glyph glyph-name="Agrave" unicode="&#xc0;" horiz-adv-x="688" 
d="M330 880q1 -3 7 -29t8.5 -34t10 -28.5t17 -36.5t22.5 -34l-3 -3q-118 46 -185 123q20 20 57.5 32t65.5 10zM598 100q29 -65 40 -80t35 -17v-3h-274v3q73 4 33 97l-71 164q-2 -12 -19 -12h-142q-25 0 -33 -20l-43 -102q-16 -40 12.5 -82.5t73.5 -44.5v-3h-191v3
q21 2 52 43t49 84l191 456q26 60 34 92h3q22 -60 36 -92zM337 255q14 0 18.5 5t-1.5 20l-84 194h-2l-96 -229q9 10 28 10h137z" />
    <glyph glyph-name="Aacute" unicode="&#xc1;" horiz-adv-x="688" 
d="M378 880q28 2 65.5 -10t57.5 -32q-67 -77 -185 -123l-3 3q46 85 65 162zM598 100q29 -65 40 -80t35 -17v-3h-274v3q73 4 33 97l-71 164q-2 -12 -19 -12h-142q-25 0 -33 -20l-43 -102q-16 -40 12.5 -82.5t73.5 -44.5v-3h-191v3q21 2 52 43t49 84l191 456q26 60 34 92h3
q22 -60 36 -92zM337 255q14 0 18.5 5t-1.5 20l-84 194h-2l-96 -229q9 10 28 10h137z" />
    <glyph glyph-name="Acircumflex" unicode="&#xc2;" horiz-adv-x="688" 
d="M480 721q-32 3 -70 18.5t-64 34.5q-26 -19 -64 -34.5t-70 -18.5l-3 3q52 55 136 175h2q84 -120 136 -175zM598 100q29 -65 40 -80t35 -17v-3h-274v3q73 4 33 97l-71 164q-2 -12 -19 -12h-142q-25 0 -33 -20l-43 -102q-16 -40 12.5 -82.5t73.5 -44.5v-3h-191v3q21 2 52 43
t49 84l191 456q26 60 34 92h3q22 -60 36 -92zM337 255q14 0 18.5 5t-1.5 20l-84 194h-2l-96 -229q9 10 28 10h137z" />
    <glyph glyph-name="Atilde" unicode="&#xc3;" horiz-adv-x="688" 
d="M259 769q-27 0 -50.5 -11.5t-29.5 -33.5l-3 1q16 139 99 139q29 0 84 -24.5t74 -24.5q27 0 50.5 11.5t29.5 33.5l3 -1q-16 -139 -99 -139q-29 0 -84 24.5t-74 24.5zM598 100q29 -65 40 -80t35 -17v-3h-274v3q73 4 33 97l-71 164q-2 -12 -19 -12h-142q-25 0 -33 -20
l-43 -102q-16 -40 12.5 -82.5t73.5 -44.5v-3h-191v3q21 2 52 43t49 84l191 456q26 60 34 92h3q22 -60 36 -92zM337 255q14 0 18.5 5t-1.5 20l-84 194h-2l-96 -229q9 10 28 10h137z" />
    <glyph glyph-name="Adieresis" unicode="&#xc4;" horiz-adv-x="688" 
d="M242 716q-35 0 -59 24t-24 58q0 33 24 57.5t59 24.5q34 0 58 -24.5t24 -57.5q0 -34 -24 -58t-58 -24zM450 716q-35 0 -59 24t-24 58q0 33 24 57.5t59 24.5q34 0 58 -24.5t24 -57.5q0 -34 -24 -58t-58 -24zM598 100q29 -65 40 -80t35 -17v-3h-274v3q73 4 33 97l-71 164
q-2 -12 -19 -12h-142q-25 0 -33 -20l-43 -102q-16 -40 12.5 -82.5t73.5 -44.5v-3h-191v3q21 2 52 43t49 84l191 456q26 60 34 92h3q22 -60 36 -92zM337 255q14 0 18.5 5t-1.5 20l-84 194h-2l-96 -229q9 10 28 10h137z" />
    <glyph glyph-name="Aring" unicode="&#xc5;" horiz-adv-x="688" 
d="M598 100q29 -65 40 -80t35 -17v-3h-274v3q73 4 33 97l-71 164q-2 -12 -19 -12h-142q-25 0 -33 -20l-43 -102q-16 -40 12.5 -82.5t73.5 -44.5v-3h-191v3q21 2 52 43t49 84l191 456q22 51 26 67q-46 3 -76.5 33.5t-30.5 73.5q0 45 33.5 76t82.5 31q50 0 84 -31t34 -76
q0 -42 -31 -72.5t-76 -34.5q8 -23 27 -67zM300 761q-1 -105 46 -105t48 103q1 105 -48 105q-45 0 -46 -103zM337 255q16 0 19.5 5.5t-4.5 23.5l2 -4l-84 194h-2l-96 -229q9 10 28 10h137z" />
    <glyph glyph-name="AE" unicode="&#xc6;" horiz-adv-x="929" 
d="M897 165h3l-8 -165h-515v3q31 2 43 16.5t12 60.5v182q-3 -10 -20 -10h-171q-27 0 -38 -21l-56 -101q-23 -41 -2 -83t65 -44v-3h-191v3q22 2 61.5 43.5t62.5 83.5l287 521q-32 9 -108 11v3h511v-140h-3q-10 73 -46 105t-108 32h-40q-23 0 -33.5 -12t-10.5 -45v-262
q12 20 47 20h57q94 0 111 84h3v-170h-3q-8 49 -35 66t-76 17h-55q-28 0 -38.5 -9t-10.5 -35v-256q0 -35 15 -46t61 -11h55q150 0 174 162zM432 284v362l-222 -402q8 11 31 11h166q15 0 20 5.5t5 23.5z" />
    <glyph glyph-name="Ccedilla" unicode="&#xc7;" horiz-adv-x="706" 
d="M658 220h3l-8 -152q-76 -83 -236 -83q-25 0 -37 1l-6 -29q115 -22 115 -99q0 -43 -32 -68t-75 -25q-46 0 -74 40l3 3q37 -13 60 -3t23 33q0 37 -40 43l22 106q-143 12 -230.5 103.5t-87.5 232.5q0 161 110 259t270 98q119 0 199 -37v-158h-3q-27 95 -86 142.5t-117 47.5
q-203 0 -203 -318q0 -171 50.5 -269t146.5 -98q79 0 146 66t87 164z" />
    <glyph glyph-name="Egrave" unicode="&#xc8;" horiz-adv-x="630" 
d="M329 880q1 -3 7 -29t8.5 -34t10 -28.5t17 -36.5t22.5 -34l-3 -3q-118 46 -185 123q20 20 57.5 32t65.5 10zM58 0v3q31 2 43 16.5t12 60.5v505q0 47 -14 61t-56 16v3h491v-140h-3q-10 73 -46 105t-108 32h-60q-23 0 -33.5 -12t-10.5 -45v-262q12 20 47 20h77q94 0 111 84
h3v-170h-3q-8 49 -35 66t-76 17h-75q-28 0 -38.5 -9t-10.5 -35v-256q0 -35 15 -46t61 -11h75q150 0 174 162h3l-8 -165h-535z" />
    <glyph glyph-name="Eacute" unicode="&#xc9;" horiz-adv-x="630" 
d="M377 880q28 2 65.5 -10t57.5 -32q-67 -77 -185 -123l-3 3q46 85 65 162zM58 0v3q31 2 43 16.5t12 60.5v505q0 47 -14 61t-56 16v3h491v-140h-3q-10 73 -46 105t-108 32h-60q-23 0 -33.5 -12t-10.5 -45v-262q12 20 47 20h77q94 0 111 84h3v-170h-3q-8 49 -35 66t-76 17
h-75q-28 0 -38.5 -9t-10.5 -35v-256q0 -35 15 -46t61 -11h75q150 0 174 162h3l-8 -165h-535z" />
    <glyph glyph-name="Ecircumflex" unicode="&#xca;" horiz-adv-x="630" 
d="M479 721q-32 3 -70 18.5t-64 34.5q-26 -19 -64 -34.5t-70 -18.5l-3 3q52 55 136 175h2q84 -120 136 -175zM58 0v3q31 2 43 16.5t12 60.5v505q0 47 -14 61t-56 16v3h491v-140h-3q-10 73 -46 105t-108 32h-60q-23 0 -33.5 -12t-10.5 -45v-262q12 20 47 20h77q94 0 111 84h3
v-170h-3q-8 49 -35 66t-76 17h-75q-28 0 -38.5 -9t-10.5 -35v-256q0 -35 15 -46t61 -11h75q150 0 174 162h3l-8 -165h-535z" />
    <glyph glyph-name="Edieresis" unicode="&#xcb;" horiz-adv-x="630" 
d="M241 716q-35 0 -59 24t-24 58q0 33 24 57.5t59 24.5q34 0 58 -24.5t24 -57.5q0 -34 -24 -58t-58 -24zM449 716q-35 0 -59 24t-24 58q0 33 24 57.5t59 24.5q34 0 58 -24.5t24 -57.5q0 -34 -24 -58t-58 -24zM58 0v3q31 2 43 16.5t12 60.5v505q0 47 -14 61t-56 16v3h491
v-140h-3q-10 73 -46 105t-108 32h-60q-23 0 -33.5 -12t-10.5 -45v-262q12 20 47 20h77q94 0 111 84h3v-170h-3q-8 49 -35 66t-76 17h-75q-28 0 -38.5 -9t-10.5 -35v-256q0 -35 15 -46t61 -11h75q150 0 174 162h3l-8 -165h-535z" />
    <glyph glyph-name="Igrave" unicode="&#xcc;" horiz-adv-x="396" 
d="M182 880q1 -3 7 -29t8.5 -34t10 -28.5t17 -36.5t22.5 -34l-3 -3q-118 46 -185 123q20 20 57.5 32t65.5 10zM278 80q0 -47 14 -61t56 -16v-3h-285v3q31 2 43 16.5t12 60.5v505q0 47 -14 61t-56 16v3h285v-3q-31 -2 -43 -16.5t-12 -60.5v-505z" />
    <glyph glyph-name="Iacute" unicode="&#xcd;" horiz-adv-x="396" 
d="M230 880q28 2 65.5 -10t57.5 -32q-67 -77 -185 -123l-3 3q46 85 65 162zM278 80q0 -47 14 -61t56 -16v-3h-285v3q31 2 43 16.5t12 60.5v505q0 47 -14 61t-56 16v3h285v-3q-31 -2 -43 -16.5t-12 -60.5v-505z" />
    <glyph glyph-name="Icircumflex" unicode="&#xce;" horiz-adv-x="396" 
d="M332 721q-32 3 -70 18.5t-64 34.5q-26 -19 -64 -34.5t-70 -18.5l-3 3q52 55 136 175h2q84 -120 136 -175zM278 80q0 -47 14 -61t56 -16v-3h-285v3q31 2 43 16.5t12 60.5v505q0 47 -14 61t-56 16v3h285v-3q-31 -2 -43 -16.5t-12 -60.5v-505z" />
    <glyph glyph-name="Idieresis" unicode="&#xcf;" horiz-adv-x="396" 
d="M94 716q-35 0 -59 24t-24 58q0 33 24 57.5t59 24.5q34 0 58 -24.5t24 -57.5q0 -34 -24 -58t-58 -24zM302 716q-35 0 -59 24t-24 58q0 33 24 57.5t59 24.5q34 0 58 -24.5t24 -57.5q0 -34 -24 -58t-58 -24zM278 80q0 -47 14 -61t56 -16v-3h-285v3q31 2 43 16.5t12 60.5v505
q0 47 -14 61t-56 16v3h285v-3q-31 -2 -43 -16.5t-12 -60.5v-505z" />
    <glyph glyph-name="Eth" unicode="&#xd0;" horiz-adv-x="791" 
d="M343 670q182 0 286 -76.5t104 -240.5q0 -89 -33 -158.5t-88.5 -111t-121 -62.5t-135.5 -21h-297v3q31 2 43 16.5t12 60.5v280h-87v4h87v221q0 47 -14 61t-56 16v3h70q35 0 112 2.5t118 2.5zM333 3q55 0 100 28.5t72.5 76t42.5 107t15 123.5q0 150 -63 239.5t-157 89.5
q-42 0 -56 -12t-14 -50v-241h123v-4h-123v-300q0 -35 11.5 -46t48.5 -11z" />
    <glyph glyph-name="Ntilde" unicode="&#xd1;" horiz-adv-x="725" 
d="M291 769q-27 0 -50.5 -11.5t-29.5 -33.5l-3 1q16 139 99 139q29 0 84 -24.5t74 -24.5q27 0 50.5 11.5t29.5 33.5l3 -1q-16 -139 -99 -139q-29 0 -84 24.5t-74 24.5zM635 -8q-46 49 -82 78l-435 365h-2v-305q0 -19 5 -37.5t17 -38t36.5 -33.5t59.5 -18v-3h-176v3
q27 8 41 47.5t14 79.5v385q0 131 -70 147v3h70q22 -28 71 -70l447 -375h2v315q0 19 -5 37.5t-17 38t-36.5 33.5t-59.5 18v3h176v-3q-27 -8 -41 -47.5t-14 -79.5v-435q0 -70 2 -108h-3z" />
    <glyph glyph-name="Ograve" unicode="&#xd2;" horiz-adv-x="795" 
d="M383 880q1 -3 7 -29t8.5 -34t10 -28.5t17 -36.5t22.5 -34l-3 -3q-118 46 -185 123q20 20 57.5 32t65.5 10zM398 680q144 0 241.5 -95.5t97.5 -250.5t-97.5 -252t-242.5 -97q-144 0 -241.5 95.5t-97.5 250.5t97.5 252t242.5 97zM418 -10q149 0 149 310q0 184 -52.5 279.5
t-137.5 95.5q-149 0 -149 -310q0 -184 52.5 -279.5t137.5 -95.5z" />
    <glyph glyph-name="Oacute" unicode="&#xd3;" horiz-adv-x="795" 
d="M431 880q28 2 65.5 -10t57.5 -32q-67 -77 -185 -123l-3 3q46 85 65 162zM398 680q144 0 241.5 -95.5t97.5 -250.5t-97.5 -252t-242.5 -97q-144 0 -241.5 95.5t-97.5 250.5t97.5 252t242.5 97zM418 -10q149 0 149 310q0 184 -52.5 279.5t-137.5 95.5q-149 0 -149 -310
q0 -184 52.5 -279.5t137.5 -95.5z" />
    <glyph glyph-name="Ocircumflex" unicode="&#xd4;" horiz-adv-x="795" 
d="M533 721q-32 3 -70 18.5t-64 34.5q-26 -19 -64 -34.5t-70 -18.5l-3 3q52 55 136 175h2q84 -120 136 -175zM398 680q144 0 241.5 -95.5t97.5 -250.5t-97.5 -252t-242.5 -97q-144 0 -241.5 95.5t-97.5 250.5t97.5 252t242.5 97zM418 -10q149 0 149 310q0 184 -52.5 279.5
t-137.5 95.5q-149 0 -149 -310q0 -184 52.5 -279.5t137.5 -95.5z" />
    <glyph glyph-name="Otilde" unicode="&#xd5;" horiz-adv-x="795" 
d="M312 769q-27 0 -50.5 -11.5t-29.5 -33.5l-3 1q16 139 99 139q29 0 84 -24.5t74 -24.5q27 0 50.5 11.5t29.5 33.5l3 -1q-16 -139 -99 -139q-29 0 -84 24.5t-74 24.5zM398 680q144 0 241.5 -95.5t97.5 -250.5t-97.5 -252t-242.5 -97q-144 0 -241.5 95.5t-97.5 250.5
t97.5 252t242.5 97zM418 -10q149 0 149 310q0 184 -52.5 279.5t-137.5 95.5q-149 0 -149 -310q0 -184 52.5 -279.5t137.5 -95.5z" />
    <glyph glyph-name="Odieresis" unicode="&#xd6;" horiz-adv-x="795" 
d="M295 716q-35 0 -59 24t-24 58q0 33 24 57.5t59 24.5q34 0 58 -24.5t24 -57.5q0 -34 -24 -58t-58 -24zM503 716q-35 0 -59 24t-24 58q0 33 24 57.5t59 24.5q34 0 58 -24.5t24 -57.5q0 -34 -24 -58t-58 -24zM398 680q144 0 241.5 -95.5t97.5 -250.5t-97.5 -252t-242.5 -97
q-144 0 -241.5 95.5t-97.5 250.5t97.5 252t242.5 97zM418 -10q149 0 149 310q0 184 -52.5 279.5t-137.5 95.5q-149 0 -149 -310q0 -184 52.5 -279.5t137.5 -95.5z" />
    <glyph glyph-name="multiply" unicode="&#xd7;" 
d="M495 390l-160 -160l159 -159l-34 -34l-159 159l-160 -160l-34 35l159 159l-160 160l35 35l160 -160l159 159z" />
    <glyph glyph-name="Oslash" unicode="&#xd8;" horiz-adv-x="795" 
d="M588 626q69 -45 109 -120t40 -172q0 -155 -97.5 -252t-242.5 -97q-120 0 -210 68l-61 -87l-3 1l62 88q-127 98 -127 276q0 155 97.5 252t242.5 97q105 0 188 -52l33 47l3 -1zM228 365q0 -126 26 -212l275 394q-51 128 -152 128q-149 0 -149 -310zM418 -10q149 0 149 310
q0 150 -36 244l-276 -394q23 -79 65.5 -119.5t97.5 -40.5z" />
    <glyph glyph-name="Ugrave" unicode="&#xd9;" horiz-adv-x="826" 
d="M396 880q1 -3 7 -29t8.5 -34t10 -28.5t17 -36.5t22.5 -34l-3 -3q-118 46 -185 123q20 20 57.5 32t65.5 10zM703 70q0 -40 14 -52.5t56 -14.5v-3h-213q-12 32 -12 100v170h-2q-3 -128 -71 -206.5t-161 -78.5q-98 0 -149.5 55.5t-51.5 147.5v397q0 47 -14 61t-56 16v3h285
v-3q-31 -2 -43 -16.5t-12 -60.5v-407q0 -57 25.5 -87.5t75.5 -30.5q73 0 121 60t48 152v313q0 47 -14 61t-56 16v3h285v-3q-31 -2 -43 -16.5t-12 -60.5v-515z" />
    <glyph glyph-name="Uacute" unicode="&#xda;" horiz-adv-x="826" 
d="M444 880q28 2 65.5 -10t57.5 -32q-67 -77 -185 -123l-3 3q46 85 65 162zM703 70q0 -40 14 -52.5t56 -14.5v-3h-213q-12 32 -12 100v170h-2q-3 -128 -71 -206.5t-161 -78.5q-98 0 -149.5 55.5t-51.5 147.5v397q0 47 -14 61t-56 16v3h285v-3q-31 -2 -43 -16.5t-12 -60.5
v-407q0 -57 25.5 -87.5t75.5 -30.5q73 0 121 60t48 152v313q0 47 -14 61t-56 16v3h285v-3q-31 -2 -43 -16.5t-12 -60.5v-515z" />
    <glyph glyph-name="Ucircumflex" unicode="&#xdb;" horiz-adv-x="826" 
d="M546 721q-32 3 -70 18.5t-64 34.5q-26 -19 -64 -34.5t-70 -18.5l-3 3q52 55 136 175h2q84 -120 136 -175zM703 70q0 -40 14 -52.5t56 -14.5v-3h-213q-12 32 -12 100v170h-2q-3 -128 -71 -206.5t-161 -78.5q-98 0 -149.5 55.5t-51.5 147.5v397q0 47 -14 61t-56 16v3h285
v-3q-31 -2 -43 -16.5t-12 -60.5v-407q0 -57 25.5 -87.5t75.5 -30.5q73 0 121 60t48 152v313q0 47 -14 61t-56 16v3h285v-3q-31 -2 -43 -16.5t-12 -60.5v-515z" />
    <glyph glyph-name="Udieresis" unicode="&#xdc;" horiz-adv-x="826" 
d="M308 716q-35 0 -59 24t-24 58q0 33 24 57.5t59 24.5q34 0 58 -24.5t24 -57.5q0 -34 -24 -58t-58 -24zM516 716q-35 0 -59 24t-24 58q0 33 24 57.5t59 24.5q34 0 58 -24.5t24 -57.5q0 -34 -24 -58t-58 -24zM703 70q0 -40 14 -52.5t56 -14.5v-3h-213q-12 32 -12 100v170h-2
q-3 -128 -71 -206.5t-161 -78.5q-98 0 -149.5 55.5t-51.5 147.5v397q0 47 -14 61t-56 16v3h285v-3q-31 -2 -43 -16.5t-12 -60.5v-407q0 -57 25.5 -87.5t75.5 -30.5q73 0 121 60t48 152v313q0 47 -14 61t-56 16v3h285v-3q-31 -2 -43 -16.5t-12 -60.5v-515z" />
    <glyph glyph-name="Yacute" unicode="&#xdd;" horiz-adv-x="631" 
d="M390 880q28 2 65.5 -10t57.5 -32q-67 -77 -185 -123l-3 3q46 85 65 162zM428 665h187v-3q-22 -2 -51 -34.5t-55 -82.5l-93 -178q-19 -36 -19 -68v-219q0 -47 14 -61t56 -16v-3h-285v3q31 2 43 16.5t12 60.5v189q0 37 -17 68l-129 228q-37 67 -49 81t-37 16v3h296v-3
q-84 -4 -31 -97l128 -222h2l105 202q25 47 -2 81t-75 36v3z" />
    <glyph glyph-name="Thorn" unicode="&#xde;" horiz-adv-x="662" 
d="M58 0v3q32 2 43.5 19.5t11.5 77.5v465q0 61 -13.5 78t-56.5 19v3h285v-3q-32 -2 -43.5 -19.5t-11.5 -77.5v-39q47 4 87 4q140 0 199.5 -43.5t59.5 -122.5q0 -98 -81.5 -157t-245.5 -46v3q78 -3 117.5 48t39.5 144q0 90 -30 130.5t-93 40.5q-53 0 -53 -43v-384
q0 -61 13.5 -78t56.5 -19v-3h-285z" />
    <glyph glyph-name="germandbls" unicode="&#xdf;" horiz-adv-x="661" 
d="M360 459q0 -21 28.5 -44.5t69.5 -47t82.5 -52t70 -71.5t28.5 -94q0 -75 -56.5 -120t-147.5 -45q-69 0 -107 26.5t-38 74.5q0 49 51 84h3q-1 -67 25.5 -124.5t75.5 -57.5q31 0 48 25t17 67t-18 72.5t-44 49.5t-51.5 38.5t-43.5 52.5t-18 79q0 38 12.5 73t28 58.5t28 63.5
t12.5 87q0 56 -17 92.5t-54 36.5q-47 0 -81.5 -62t-34.5 -188v-443q0 -54 9 -69.5t36 -17.5v-3h-240v3q27 2 36 17.5t9 69.5v367h-50v3h50v38q0 93 49 161.5t118.5 99.5t146.5 31q79 0 123.5 -35t44.5 -94q0 -48 -31.5 -81.5t-69 -47.5t-69 -32.5t-31.5 -40.5z" />
    <glyph glyph-name="agrave" unicode="&#xe0;" horiz-adv-x="534" 
d="M279 540q-48 29 -97.5 78t-77.5 95q22 18 60 30t64 12q19 -144 54 -215h-3zM539 77l2 -1q-45 -91 -138 -91q-95 0 -115 81h-2q-23 -39 -60.5 -60t-79.5 -21q-53 0 -80.5 31.5t-27.5 77.5q0 61 59.5 99.5t188.5 65.5v105q0 103 -68 103q-43 0 -78.5 -51.5t-60.5 -125.5h-3
v138q92 47 197 47q173 0 173 -134v-238q0 -48 39 -48q29 0 54 22zM286 69v187q-108 -33 -108 -139q0 -67 56 -67q20 0 52 19z" />
    <glyph glyph-name="aacute" unicode="&#xe1;" horiz-adv-x="534" 
d="M418 713q-28 -46 -77.5 -95t-97.5 -78l-3 3q36 72 54 212q26 0 64 -12t60 -30zM539 77l2 -1q-45 -91 -138 -91q-95 0 -115 81h-2q-23 -39 -60.5 -60t-79.5 -21q-53 0 -80.5 31.5t-27.5 77.5q0 61 59.5 99.5t188.5 65.5v105q0 103 -68 103q-43 0 -78.5 -51.5t-60.5 -125.5
h-3v138q92 47 197 47q173 0 173 -134v-238q0 -48 39 -48q29 0 54 22zM286 69v187q-108 -33 -108 -139q0 -67 56 -67q20 0 52 19z" />
    <glyph glyph-name="acircumflex" unicode="&#xe2;" horiz-adv-x="534" 
d="M263 610q-6 -6 -13 -12.5t-13 -11.5t-16.5 -11.5t-15.5 -10t-17.5 -10.5t-16 -8.5t-17 -9t-15.5 -8.5l-3 1q77 103 126 225h2q49 -122 126 -225l-3 -1q-2 1 -15.5 8.5t-17 9t-16 8.5t-17.5 10.5t-15.5 10t-16.5 11.5t-13 11.5t-13 12.5zM539 77l2 -1q-45 -91 -138 -91
q-95 0 -115 81h-2q-23 -39 -60.5 -60t-79.5 -21q-53 0 -80.5 31.5t-27.5 77.5q0 61 59.5 99.5t188.5 65.5v105q0 103 -68 103q-43 0 -78.5 -51.5t-60.5 -125.5h-3v138q92 47 197 47q173 0 173 -134v-238q0 -48 39 -48q29 0 54 22zM286 69v187q-108 -33 -108 -139
q0 -67 56 -67q20 0 52 19z" />
    <glyph glyph-name="atilde" unicode="&#xe3;" horiz-adv-x="534" 
d="M181 589q-68 0 -80 -54h-3q16 139 99 139q29 0 79 -29.5t69 -29.5q68 0 80 54h3q-16 -139 -99 -139q-29 0 -79 29.5t-69 29.5zM539 77l2 -1q-45 -91 -138 -91q-95 0 -115 81h-2q-23 -39 -60.5 -60t-79.5 -21q-53 0 -80.5 31.5t-27.5 77.5q0 61 59.5 99.5t188.5 65.5v105
q0 103 -68 103q-43 0 -78.5 -51.5t-60.5 -125.5h-3v138q92 47 197 47q173 0 173 -134v-238q0 -48 39 -48q29 0 54 22zM286 69v187q-108 -33 -108 -139q0 -67 56 -67q20 0 52 19z" />
    <glyph glyph-name="adieresis" unicode="&#xe4;" horiz-adv-x="534" 
d="M159 545q-33 0 -55.5 23t-22.5 55q0 33 22.5 56t55.5 23t55.5 -23t22.5 -56q0 -32 -22.5 -55t-55.5 -23zM365 545q-33 0 -55.5 23t-22.5 55q0 33 22.5 56t55.5 23t55.5 -23t22.5 -56q0 -32 -22.5 -55t-55.5 -23zM539 77l2 -1q-45 -91 -138 -91q-95 0 -115 81h-2
q-23 -39 -60.5 -60t-79.5 -21q-53 0 -80.5 31.5t-27.5 77.5q0 61 59.5 99.5t188.5 65.5v105q0 103 -68 103q-43 0 -78.5 -51.5t-60.5 -125.5h-3v138q92 47 197 47q173 0 173 -134v-238q0 -48 39 -48q29 0 54 22zM286 69v187q-108 -33 -108 -139q0 -67 56 -67q20 0 52 19z
" />
    <glyph glyph-name="aring" unicode="&#xe5;" horiz-adv-x="534" 
d="M262 528q-51 0 -83 29.5t-32 74.5q0 46 32.5 78t85.5 32q51 0 83.5 -29.5t32.5 -74.5q0 -46 -33 -78t-86 -32zM261 739q-39 0 -39 -102q0 -106 43 -106q41 0 41 102q0 106 -45 106zM539 77l2 -1q-45 -91 -138 -91q-95 0 -115 81h-2q-23 -39 -60.5 -60t-79.5 -21
q-53 0 -80.5 31.5t-27.5 77.5q0 61 59.5 99.5t188.5 65.5v105q0 103 -68 103q-43 0 -78.5 -51.5t-60.5 -125.5h-3v138q92 47 197 47q173 0 173 -134v-238q0 -48 39 -48q29 0 54 22zM286 69v187q-108 -33 -108 -139q0 -67 56 -67q20 0 52 19z" />
    <glyph glyph-name="ae" unicode="&#xe6;" horiz-adv-x="760" 
d="M730 136l3 -3q-61 -148 -208 -148q-70 0 -124.5 29.5t-84.5 84.5q-25 -60 -69 -87t-93 -27q-56 0 -86 31.5t-30 75.5q0 48 38.5 86t92 57.5t117.5 28.5v65q0 77 -17.5 107.5t-50.5 30.5q-51 0 -92.5 -54t-56.5 -123h-3v138q94 47 200 47q92 0 129 -40q65 40 149 40
q86 0 134 -42t49 -114v-3l-296 -37q8 -179 155 -179q94 0 144 36zM513 470q-38 0 -60 -45t-22 -124v-19l146 18q0 86 -14 128t-50 42zM226 65q51 0 88 37q-28 54 -28 123v36q-36 -5 -61 -20.5t-35 -36.5t-13.5 -36t-3.5 -31q0 -33 13.5 -52.5t39.5 -19.5z" />
    <glyph glyph-name="ccedilla" unicode="&#xe7;" horiz-adv-x="486" 
d="M462 143q-31 -72 -76.5 -113t-117.5 -45l-5 -28q115 -22 115 -99q0 -43 -32 -68t-75 -25q-46 0 -74 40l3 3q38 -13 60.5 -3t22.5 33q0 37 -40 43l21 104h-7q-98 0 -162.5 65t-64.5 173q0 64 25 114.5t66 79.5t87.5 43.5t95.5 14.5q94 0 141 -32v-153h-3q-12 95 -54 138.5
t-87 43.5q-50 0 -80.5 -51t-30.5 -136q0 -94 38 -139.5t106 -45.5q78 0 125 46z" />
    <glyph glyph-name="egrave" unicode="&#xe8;" horiz-adv-x="504" 
d="M294 540q-48 29 -97.5 78t-77.5 95q22 18 60 30t64 12q19 -144 54 -215h-3zM474 136l3 -3q-61 -148 -208 -148q-105 0 -172 65t-67 176q0 116 73.5 182.5t187.5 66.5q84 0 132 -43t48 -116l-296 -37q8 -179 155 -179q94 0 144 36zM257 470q-38 0 -60 -45t-22 -124v-19
l146 18q0 86 -14 128t-50 42z" />
    <glyph glyph-name="eacute" unicode="&#xe9;" horiz-adv-x="504" 
d="M433 713q-28 -46 -77.5 -95t-97.5 -78l-3 3q36 72 54 212q26 0 64 -12t60 -30zM474 136l3 -3q-61 -148 -208 -148q-105 0 -172 65t-67 176q0 116 73.5 182.5t187.5 66.5q84 0 132 -43t48 -116l-296 -37q8 -179 155 -179q94 0 144 36zM257 470q-38 0 -60 -45t-22 -124v-19
l146 18q0 86 -14 128t-50 42z" />
    <glyph glyph-name="ecircumflex" unicode="&#xea;" horiz-adv-x="504" 
d="M278 610q-6 -6 -13 -12.5t-13 -11.5t-16.5 -11.5t-15.5 -10t-17.5 -10.5t-16 -8.5t-17 -9t-15.5 -8.5l-3 1q77 103 126 225h2q49 -122 126 -225l-3 -1q-2 1 -15.5 8.5t-17 9t-16 8.5t-17.5 10.5t-15.5 10t-16.5 11.5t-13 11.5t-13 12.5zM474 136l3 -3q-61 -148 -208 -148
q-105 0 -172 65t-67 176q0 116 73.5 182.5t187.5 66.5q84 0 132 -43t48 -116l-296 -37q8 -179 155 -179q94 0 144 36zM257 470q-38 0 -60 -45t-22 -124v-19l146 18q0 86 -14 128t-50 42z" />
    <glyph glyph-name="edieresis" unicode="&#xeb;" horiz-adv-x="504" 
d="M174 545q-33 0 -55.5 23t-22.5 55q0 33 22.5 56t55.5 23t55.5 -23t22.5 -56q0 -32 -22.5 -55t-55.5 -23zM380 545q-33 0 -55.5 23t-22.5 55q0 33 22.5 56t55.5 23t55.5 -23t22.5 -56q0 -32 -22.5 -55t-55.5 -23zM474 136l3 -3q-61 -148 -208 -148q-105 0 -172 65t-67 176
q0 116 73.5 182.5t187.5 66.5q84 0 132 -43t48 -116l-296 -37q8 -179 155 -179q94 0 144 36zM257 470q-38 0 -60 -45t-22 -124v-19l146 18q0 86 -14 128t-50 42z" />
    <glyph glyph-name="igrave" unicode="&#xec;" horiz-adv-x="316" 
d="M128 755q19 -144 54 -215h-3q-48 29 -97.5 78t-77.5 95q22 18 60 30t64 12zM233 90q0 -55 11 -70t49 -17v-3h-255v3q27 2 36 17.5t9 69.5v269q0 29 -25 29q-18 0 -44 -10l-1 2l221 103l3 -3q-4 -40 -4 -131v-259z" />
    <glyph glyph-name="iacute" unicode="&#xed;" horiz-adv-x="316" 
d="M194 755q26 0 64 -12t60 -30q-28 -46 -77.5 -95t-97.5 -78l-3 3q36 72 54 212zM233 90q0 -55 11 -70t49 -17v-3h-255v3q27 2 36 17.5t9 69.5v269q0 29 -25 29q-18 0 -44 -10l-1 2l221 103l3 -3q-4 -40 -4 -131v-259z" />
    <glyph glyph-name="icircumflex" unicode="&#xee;" horiz-adv-x="316" 
d="M287 528q-2 1 -15.5 8.5t-17 9t-16 8.5t-17.5 10.5t-15.5 10t-16.5 11.5t-13 11.5t-13 12.5q-6 -6 -13 -12.5t-13 -11.5t-16.5 -11.5t-15.5 -10t-17.5 -10.5t-16 -8.5t-17 -9t-15.5 -8.5l-3 1q77 103 126 225h2q49 -122 126 -225zM233 90q0 -55 11 -70t49 -17v-3h-255v3
q27 2 36 17.5t9 69.5v269q0 29 -25 29q-18 0 -44 -10l-1 2l221 103l3 -3q-4 -40 -4 -131v-259z" />
    <glyph glyph-name="idieresis" unicode="&#xef;" horiz-adv-x="316" 
d="M59 545q-33 0 -55.5 23t-22.5 55q0 33 22.5 56t55.5 23t55.5 -23t22.5 -56q0 -32 -22.5 -55t-55.5 -23zM265 545q-33 0 -55.5 23t-22.5 55q0 33 22.5 56t55.5 23t55.5 -23t22.5 -56q0 -32 -22.5 -55t-55.5 -23zM233 90q0 -55 11 -70t49 -17v-3h-255v3q27 2 36 17.5
t9 69.5v269q0 29 -25 29q-18 0 -44 -10l-1 2l221 103l3 -3q-4 -40 -4 -131v-259z" />
    <glyph glyph-name="eth" unicode="&#xf0;" horiz-adv-x="570" 
d="M324 708q216 -141 216 -435q0 -76 -21 -133t-58 -90t-82 -49t-98 -16q-111 0 -181 64t-70 164q0 110 69.5 176t175.5 66q52 0 90 -16h2q-15 143 -82 235l-119 -99l-2 3l119 99q-56 76 -144 110l2 3q104 -30 180 -80l96 80l2 -3zM291 -12q94 0 94 218q0 246 -101 246
q-94 0 -94 -218q0 -246 101 -246z" />
    <glyph glyph-name="ntilde" unicode="&#xf1;" horiz-adv-x="614" 
d="M241 589q-68 0 -80 -54h-3q16 139 99 139q29 0 79 -29.5t69 -29.5q68 0 80 54h3q-16 -139 -99 -139q-29 0 -79 29.5t-69 29.5zM533 90q0 -55 11 -70t49 -17v-3h-255v3q27 2 36 17.5t9 69.5v251q0 33 -10.5 49.5t-42.5 16.5q-47 0 -97 -32v-285q0 -55 11 -70t49 -17v-3
h-255v3q27 2 36 17.5t9 69.5v275q0 25 -22 25q-18 0 -37 -8l-1 2l211 97l3 -3q-7 -28 -7 -100h3q86 97 180 97q62 0 91 -30t29 -94v-261z" />
    <glyph glyph-name="ograve" unicode="&#xf2;" horiz-adv-x="570" 
d="M252 755q19 -144 54 -215h-3q-48 29 -97.5 78t-77.5 95q22 18 60 30t64 12zM292 475q110 0 179 -66t69 -173q0 -114 -77 -182.5t-185 -68.5q-110 0 -179 66t-69 173q0 114 77 182.5t185 68.5zM295 -10q85 0 85 210q0 124 -28.5 197t-76.5 73q-85 0 -85 -210
q0 -124 28.5 -197t76.5 -73z" />
    <glyph glyph-name="oacute" unicode="&#xf3;" horiz-adv-x="570" 
d="M318 755q26 0 64 -12t60 -30q-28 -46 -77.5 -95t-97.5 -78l-3 3q36 72 54 212zM292 475q110 0 179 -66t69 -173q0 -114 -77 -182.5t-185 -68.5q-110 0 -179 66t-69 173q0 114 77 182.5t185 68.5zM295 -10q85 0 85 210q0 124 -28.5 197t-76.5 73q-85 0 -85 -210
q0 -124 28.5 -197t76.5 -73z" />
    <glyph glyph-name="ocircumflex" unicode="&#xf4;" horiz-adv-x="570" 
d="M411 528q-2 1 -15.5 8.5t-17 9t-16 8.5t-17.5 10.5t-15.5 10t-16.5 11.5t-13 11.5t-13 12.5q-6 -6 -13 -12.5t-13 -11.5t-16.5 -11.5t-15.5 -10t-17.5 -10.5t-16 -8.5t-17 -9t-15.5 -8.5l-3 1q77 103 126 225h2q49 -122 126 -225zM292 475q110 0 179 -66t69 -173
q0 -114 -77 -182.5t-185 -68.5q-110 0 -179 66t-69 173q0 114 77 182.5t185 68.5zM295 -10q85 0 85 210q0 124 -28.5 197t-76.5 73q-85 0 -85 -210q0 -124 28.5 -197t76.5 -73z" />
    <glyph glyph-name="otilde" unicode="&#xf5;" horiz-adv-x="570" 
d="M205 589q-68 0 -80 -54h-3q16 139 99 139q29 0 79 -29.5t69 -29.5q68 0 80 54h3q-16 -139 -99 -139q-29 0 -79 29.5t-69 29.5zM292 475q110 0 179 -66t69 -173q0 -114 -77 -182.5t-185 -68.5q-110 0 -179 66t-69 173q0 114 77 182.5t185 68.5zM295 -10q85 0 85 210
q0 124 -28.5 197t-76.5 73q-85 0 -85 -210q0 -124 28.5 -197t76.5 -73z" />
    <glyph glyph-name="odieresis" unicode="&#xf6;" horiz-adv-x="570" 
d="M183 545q-33 0 -55.5 23t-22.5 55q0 33 22.5 56t55.5 23t55.5 -23t22.5 -56q0 -32 -22.5 -55t-55.5 -23zM389 545q-33 0 -55.5 23t-22.5 55q0 33 22.5 56t55.5 23t55.5 -23t22.5 -56q0 -32 -22.5 -55t-55.5 -23zM292 475q110 0 179 -66t69 -173q0 -114 -77 -182.5
t-185 -68.5q-110 0 -179 66t-69 173q0 114 77 182.5t185 68.5zM295 -10q85 0 85 210q0 124 -28.5 197t-76.5 73q-85 0 -85 -210q0 -124 28.5 -197t76.5 -73z" />
    <glyph glyph-name="divide" unicode="&#xf7;" 
d="M300 301q-30 0 -51 21t-21 50t21 50.5t51 21.5t50.5 -21t20.5 -51q0 -29 -20.5 -50t-50.5 -21zM505 205h-410v50h410v-50zM300 24q-30 0 -51 21t-21 50t21 50.5t51 21.5t50.5 -21t20.5 -51q0 -29 -20.5 -50t-50.5 -21z" />
    <glyph glyph-name="oslash" unicode="&#xf8;" horiz-adv-x="570" 
d="M426 442q114 -64 114 -206q0 -114 -77 -182.5t-185 -68.5q-83 0 -144 39l-38 -54l-3 1l38 55q-101 66 -101 198q0 114 77 182.5t185 68.5q74 0 132 -32l47 68l3 -1zM190 260q0 -74 11 -134l163 232q-28 112 -89 112q-85 0 -85 -210zM295 -10q85 0 85 210q0 91 -15 154
l-163 -232q27 -132 93 -132z" />
    <glyph glyph-name="ugrave" unicode="&#xf9;" horiz-adv-x="604" 
d="M269 755q19 -144 54 -215h-3q-48 29 -97.5 78t-77.5 95q22 18 60 30t64 12zM582 78l1 -2l-211 -97l-3 3q7 28 7 100h-3q-86 -97 -175 -97q-62 0 -91 30t-29 94v256q0 25 -22 25q-18 0 -37 -8l-1 2l211 97l3 -3q-4 -40 -4 -129v-228q0 -33 10 -50.5t38 -17.5q45 0 97 33
v279q0 25 -22 25q-18 0 -37 -8l-1 2l211 97l3 -3q-4 -40 -4 -129v-254q0 -25 22 -25q18 0 37 8z" />
    <glyph glyph-name="uacute" unicode="&#xfa;" horiz-adv-x="604" 
d="M335 755q26 0 64 -12t60 -30q-28 -46 -77.5 -95t-97.5 -78l-3 3q36 72 54 212zM582 78l1 -2l-211 -97l-3 3q7 28 7 100h-3q-86 -97 -175 -97q-62 0 -91 30t-29 94v256q0 25 -22 25q-18 0 -37 -8l-1 2l211 97l3 -3q-4 -40 -4 -129v-228q0 -33 10 -50.5t38 -17.5
q45 0 97 33v279q0 25 -22 25q-18 0 -37 -8l-1 2l211 97l3 -3q-4 -40 -4 -129v-254q0 -25 22 -25q18 0 37 8z" />
    <glyph glyph-name="ucircumflex" unicode="&#xfb;" horiz-adv-x="604" 
d="M428 528q-2 1 -15.5 8.5t-17 9t-16 8.5t-17.5 10.5t-15.5 10t-16.5 11.5t-13 11.5t-13 12.5q-6 -6 -13 -12.5t-13 -11.5t-16.5 -11.5t-15.5 -10t-17.5 -10.5t-16 -8.5t-17 -9t-15.5 -8.5l-3 1q77 103 126 225h2q49 -122 126 -225zM582 78l1 -2l-211 -97l-3 3q7 28 7 100
h-3q-86 -97 -175 -97q-62 0 -91 30t-29 94v256q0 25 -22 25q-18 0 -37 -8l-1 2l211 97l3 -3q-4 -40 -4 -129v-228q0 -33 10 -50.5t38 -17.5q45 0 97 33v279q0 25 -22 25q-18 0 -37 -8l-1 2l211 97l3 -3q-4 -40 -4 -129v-254q0 -25 22 -25q18 0 37 8z" />
    <glyph glyph-name="udieresis" unicode="&#xfc;" horiz-adv-x="604" 
d="M200 545q-33 0 -55.5 23t-22.5 55q0 33 22.5 56t55.5 23t55.5 -23t22.5 -56q0 -32 -22.5 -55t-55.5 -23zM406 545q-33 0 -55.5 23t-22.5 55q0 33 22.5 56t55.5 23t55.5 -23t22.5 -56q0 -32 -22.5 -55t-55.5 -23zM582 78l1 -2l-211 -97l-3 3q7 28 7 100h-3
q-86 -97 -175 -97q-62 0 -91 30t-29 94v256q0 25 -22 25q-18 0 -37 -8l-1 2l211 97l3 -3q-4 -40 -4 -129v-228q0 -33 10 -50.5t38 -17.5q45 0 97 33v279q0 25 -22 25q-18 0 -37 -8l-1 2l211 97l3 -3q-4 -40 -4 -129v-254q0 -25 22 -25q18 0 37 8z" />
    <glyph glyph-name="yacute" unicode="&#xfd;" horiz-adv-x="493" 
d="M306 755q26 0 64 -12t60 -30q-28 -46 -77.5 -95t-97.5 -78l-3 3q36 72 54 212zM84 -225q-41 0 -61 24.5t-20 57.5q0 55 46 93h3q3 -43 17.5 -64t55.5 -21q33 0 61 21t58 81l-189 393q-5 10 -11 22.5t-9 19.5t-7.5 15.5t-7 12.5t-5.5 9.5t-5 7.5t-5 4.5t-6 3.5l-6 2v3h253
v-3q-36 -2 -41.5 -30t14.5 -67l102 -216h2l95 216q17 38 -7.5 66.5t-73.5 30.5v3h161v-3q-35 -3 -76 -97l-124 -281q-82 -187 -120.5 -245.5t-93.5 -58.5z" />
    <glyph glyph-name="thorn" unicode="&#xfe;" 
d="M297 -15q-31 0 -67 4v-124q0 -55 12.5 -70t57.5 -17v-3h-265v3q27 2 36 17.5t9 69.5v802q0 30 -25 30q-18 0 -44 -10l-1 2l221 101l3 -3q-4 -40 -4 -129v-278q20 42 62 68.5t97 26.5q75 0 128 -62.5t53 -166.5q0 -68 -25 -120.5t-66 -82t-87 -44t-95 -14.5zM306 405
q-46 0 -76 -30v-298q23 -87 76 -87q46 0 75 55t29 158q0 104 -28.5 153t-75.5 49z" />
    <glyph glyph-name="ydieresis" unicode="&#xff;" horiz-adv-x="493" 
d="M171 545q-33 0 -55.5 23t-22.5 55q0 33 22.5 56t55.5 23t55.5 -23t22.5 -56q0 -32 -22.5 -55t-55.5 -23zM377 545q-33 0 -55.5 23t-22.5 55q0 33 22.5 56t55.5 23t55.5 -23t22.5 -56q0 -32 -22.5 -55t-55.5 -23zM84 -225q-41 0 -61 24.5t-20 57.5q0 55 46 93h3
q3 -43 17.5 -64t55.5 -21q33 0 61 21t58 81l-189 393q-5 10 -11 22.5t-9 19.5t-7.5 15.5t-7 12.5t-5.5 9.5t-5 7.5t-5 4.5t-6 3.5l-6 2v3h253v-3q-36 -2 -41.5 -30t14.5 -67l102 -216h2l95 216q17 38 -7.5 66.5t-73.5 30.5v3h161v-3q-35 -3 -76 -97l-124 -281
q-82 -187 -120.5 -245.5t-93.5 -58.5z" />
    <glyph glyph-name="dotlessi" unicode="&#x131;" horiz-adv-x="316" 
d="M233 90q0 -55 11 -70t49 -17v-3h-255v3q27 2 36 17.5t9 69.5v269q0 29 -25 29q-18 0 -44 -10l-1 2l221 103l3 -3q-4 -40 -4 -131v-259z" />
    <glyph glyph-name="Ldot" horiz-adv-x="577" 
d="M558 165h3l-8 -165h-495v3q31 2 43 16.5t12 60.5v505q0 47 -14 61t-56 16v3h285v-3q-31 -2 -43 -16.5t-12 -60.5v-525q0 -35 15 -46t61 -11h45q78 0 118.5 45.5t45.5 116.5zM423 265q-37 0 -62 25.5t-25 60.5q0 36 25.5 61.5t61.5 25.5t61 -25.5t25 -61.5
q0 -35 -25 -60.5t-61 -25.5z" />
    <glyph glyph-name="ldot" horiz-adv-x="397" 
d="M232 90q0 -55 11 -70t49 -17v-3h-255v3q27 2 36 17.5t9 69.5v577q0 30 -25 30q-18 0 -44 -10l-1 2l221 101l3 -3q-4 -40 -4 -129v-568zM351 265q-37 0 -62 25.5t-25 60.5q0 36 25.5 61.5t61.5 25.5t61 -25.5t25 -61.5q0 -35 -25 -60.5t-61 -25.5z" />
    <glyph glyph-name="OE" unicode="&#x152;" horiz-adv-x="1033" 
d="M1003 165h3l-8 -165h-551q-163 0 -276 89.5t-113 241.5t113 243t277 91h491v-140h-3q-10 73 -46 105t-108 32h-60q-23 0 -33.5 -12t-10.5 -45v-262q12 20 47 20h77q94 0 111 84h3v-170h-3q-8 49 -35 66t-76 17h-75q-28 0 -38.5 -9t-10.5 -35v-256q0 -35 15 -46t61 -11h75
q150 0 174 162zM518 120v425q0 77 -17 97t-74 20q-90 0 -144.5 -86t-54.5 -211q0 -159 68.5 -260.5t166.5 -101.5q16 0 26.5 5.5t16.5 12.5t8.5 25t3 31.5t0.5 42.5z" />
    <glyph glyph-name="oe" unicode="&#x153;" horiz-adv-x="867" 
d="M837 136l3 -3q-61 -148 -208 -148q-107 0 -172 65q-74 -65 -182 -65q-110 0 -179 66t-69 173q0 114 77 182.5t185 68.5t177 -64q72 64 185 64q84 0 132 -43t48 -116l-296 -37q8 -179 155 -179q94 0 144 36zM295 -10q85 0 85 210q0 124 -28.5 197t-76.5 73q-85 0 -85 -210
q0 -124 28.5 -197t76.5 -73zM620 470q-38 0 -60 -45t-22 -124v-19l146 18q0 86 -14 128t-50 42z" />
    <glyph glyph-name="figuredash" unicode="&#x2012;" horiz-adv-x="544" 
d="M522 347h-500v3h500v-3z" />
    <glyph glyph-name="endash" unicode="&#x2013;" horiz-adv-x="500" 
d="M500 257h-500v3h500v-3z" />
    <glyph glyph-name="emdash" unicode="&#x2014;" horiz-adv-x="825" 
d="M825 257h-825v3h825v-3z" />
    <glyph glyph-name="quoteleft" unicode="&#x2018;" horiz-adv-x="199" 
d="M46 502q70 5 123 61q-21 46 -21 100q0 41 16 93t42 68v3q-76 -17 -128 -78.5t-52 -137.5q0 -60 20 -109z" />
    <glyph glyph-name="quoteright" unicode="&#x2019;" horiz-adv-x="205" 
d="M185 690q-70 -5 -123 -61q21 -46 21 -100q0 -41 -16 -93t-42 -68v-3q76 17 128 78.5t52 137.5q0 60 -20 109z" />
    <glyph glyph-name="quotesinglbase" unicode="&#x201a;" horiz-adv-x="199" 
d="M153 163q-70 -5 -123 -61q21 -46 21 -100q0 -41 -16 -93t-42 -68v-3q76 17 128 78.5t52 137.5q0 60 -20 109z" />
    <glyph glyph-name="quotedblleft" unicode="&#x201c;" horiz-adv-x="418" 
d="M38 365q70 5 123 61q-21 46 -21 100q0 41 16 93t42 68v3q-76 -17 -128 -78.5t-52 -137.5q0 -60 20 -109zM233 365q70 5 123 61q-21 46 -21 100q0 41 16 93t42 68v3q-76 -17 -128 -78.5t-52 -137.5q0 -60 20 -109z" />
    <glyph glyph-name="quotedblright" unicode="&#x201d;" horiz-adv-x="400" 
d="M185 690q-70 -5 -123 -61q21 -46 21 -100q0 -41 -16 -93t-42 -68v-3q76 17 128 78.5t52 137.5q0 60 -20 109zM380 690q-70 -5 -123 -61q21 -46 21 -100q0 -41 -16 -93t-42 -68v-3q76 17 128 78.5t52 137.5q0 60 -20 109z" />
    <glyph glyph-name="quotedblbase" unicode="&#x201e;" horiz-adv-x="394" 
d="M153 163q-70 -5 -123 -61q21 -46 21 -100q0 -41 -16 -93t-42 -68v-3q76 17 128 78.5t52 137.5q0 60 -20 109zM348 163q-70 -5 -123 -61q21 -46 21 -100q0 -41 -16 -93t-42 -68v-3q76 17 128 78.5t52 137.5q0 60 -20 109z" />
    <glyph glyph-name="dagger" unicode="&#x2020;" horiz-adv-x="528" 
d="M425 528q30 0 50 -23.5t20 -55.5q0 -29 -19 -45t-51 -16q-21 0 -39 10.5t-30.5 23t-36 23.5t-53.5 11q2 -96 68 -169q-67 -225 -68 -407h-4q-1 182 -68 407q68 75 68 169q-30 0 -53.5 -11t-36 -23.5t-30.5 -23t-39 -10.5q-30 0 -50 20.5t-20 50.5q0 31 19.5 50t50.5 19
q21 0 39.5 -10.5t30.5 -23t35.5 -23.5t53.5 -11q0 42 -34 85.5t-34 73.5q0 31 19.5 51t50.5 20q30 0 50 -20t20 -51q0 -30 -34 -73.5t-34 -85.5q30 0 53.5 11t35.5 23.5t30.5 23t39.5 10.5z" />
    <glyph glyph-name="daggerdbl" unicode="&#x2021;" horiz-adv-x="528" 
d="M425 186q32 0 51 -16t19 -45q0 -32 -20 -55.5t-50 -23.5q-21 0 -39.5 10.5t-30.5 23t-35.5 23.5t-53.5 11q0 -42 34 -85.5t34 -73.5q0 -31 -20 -51t-50 -20q-31 0 -50.5 20t-19.5 51q0 30 34 73.5t34 85.5q-30 0 -53.5 -11t-35.5 -23.5t-30.5 -23t-39.5 -10.5
q-31 0 -50.5 19t-19.5 50q0 30 20 50.5t50 20.5q21 0 39 -10.5t30.5 -23t36 -23.5t53.5 -11q0 94 -68 169q68 75 68 169q-30 0 -53.5 -11t-36 -23.5t-30.5 -23t-39 -10.5q-30 0 -50 20.5t-20 50.5q0 31 19.5 50t50.5 19q21 0 39.5 -10.5t30.5 -23t35.5 -23.5t53.5 -11
q0 42 -34 85.5t-34 73.5q0 31 19.5 51t50.5 20q30 0 50 -20t20 -51q0 -30 -34 -73.5t-34 -85.5q30 0 53.5 11t35.5 23.5t30.5 23t39.5 10.5q30 0 50 -23.5t20 -55.5q0 -29 -19 -45t-51 -16q-21 0 -39 10.5t-30.5 23t-36 23.5t-53.5 11q2 -96 68 -169q-66 -73 -68 -169
q30 0 53.5 11t36 23.5t30.5 23t39 10.5z" />
    <glyph glyph-name="bullet" unicode="&#x2022;" horiz-adv-x="338" 
d="M170 235q-59 0 -99.5 40.5t-40.5 97.5q0 58 40.5 99t99.5 41q57 0 97.5 -41.5t40.5 -98.5t-40.5 -97.5t-97.5 -40.5z" />
    <glyph glyph-name="ellipsis" unicode="&#x2026;" horiz-adv-x="675" 
d="M113 -15q-37 0 -62 25.5t-25 60.5q0 36 25.5 61.5t61.5 25.5t61 -25.5t25 -61.5q0 -35 -25 -60.5t-61 -25.5zM338 -15q-36 0 -61.5 25.5t-25.5 60.5q0 36 25.5 61.5t61.5 25.5t61 -25.5t25 -61.5q0 -35 -25 -60.5t-61 -25.5zM563 -15q-37 0 -62 25.5t-25 60.5
q0 36 25.5 61.5t61.5 25.5t61 -25.5t25 -61.5q0 -35 -25 -60.5t-61 -25.5z" />
    <glyph glyph-name="perthousand" unicode="&#x2030;" horiz-adv-x="1168" 
d="M596 575l3 -2l-371 -585l-3 2zM198 543q69 0 115.5 -45.5t46.5 -117.5q0 -71 -46 -118t-116 -47q-69 0 -115.5 45.5t-46.5 117.5q0 71 46 118t116 47zM200 218q48 0 48 153q0 169 -52 169q-48 0 -48 -153q0 -169 52 -169zM600 313q69 0 115.5 -45.5t46.5 -117.5
q0 -71 -46 -118t-116 -47q-69 0 -115.5 45.5t-46.5 117.5q0 71 46 118t116 47zM970 313q69 0 115.5 -45.5t46.5 -117.5q0 -71 -46 -118t-116 -47q-69 0 -115.5 45.5t-46.5 117.5q0 71 46 118t116 47zM602 -12q48 0 48 153q0 169 -52 169q-48 0 -48 -153q0 -169 52 -169z
M972 -12q48 0 48 153q0 169 -52 169q-48 0 -48 -153q0 -169 52 -169z" />
    <glyph glyph-name="minute" unicode="&#x2032;" horiz-adv-x="236" 
d="M216 680q-68 16 -153 0q0 -10 -1.5 -41t-2.5 -43.5t-3 -40t-4.5 -45t-7 -42t-10.5 -47.5t-14 -46h3q134 136 193 305z" />
    <glyph glyph-name="second" unicode="&#x2033;" horiz-adv-x="436" 
d="M216 680q-68 16 -153 0q0 -10 -1.5 -41t-2.5 -43.5t-3 -40t-4.5 -45t-7 -42t-10.5 -47.5t-14 -46h3q134 136 193 305zM416 680q-68 16 -153 0q0 -10 -1.5 -41t-2.5 -43.5t-3 -40t-4.5 -45t-7 -42t-10.5 -47.5t-14 -46h3q134 136 193 305z" />
    <glyph glyph-name="uni2034" unicode="&#x2034;" horiz-adv-x="636" 
d="M216 680q-68 16 -153 0q0 -10 -1.5 -41t-2.5 -43.5t-3 -40t-4.5 -45t-7 -42t-10.5 -47.5t-14 -46h3q134 136 193 305zM416 680q-68 16 -153 0q0 -10 -1.5 -41t-2.5 -43.5t-3 -40t-4.5 -45t-7 -42t-10.5 -47.5t-14 -46h3q134 136 193 305zM616 680q-68 16 -153 0
q0 -10 -1.5 -41t-2.5 -43.5t-3 -40t-4.5 -45t-7 -42t-10.5 -47.5t-14 -46h3q134 136 193 305z" />
    <glyph glyph-name="guilsinglleft" unicode="&#x2039;" horiz-adv-x="248" 
d="M140 259q0 -4 10 -24l83 -164l-3 -3l-215 190v2l215 190l3 -3l-83 -164q-10 -17 -10 -24z" />
    <glyph glyph-name="guilsinglright" unicode="&#x203a;" horiz-adv-x="248" 
d="M108 259q0 7 -10 24l-83 164l3 3l215 -190v-2l-215 -190l-3 3l83 164q10 20 10 24z" />
    <glyph glyph-name="uni204E" unicode="&#x204e;" horiz-adv-x="412" 
d="M392 214l-128 -79l63 -145l-1 -2l-120 104l-120 -104l-1 2l63 145l-128 79l1 2l150 -13l34 149h2l34 -149l150 13z" />
    <glyph glyph-name="uni2056" unicode="&#x2056;" horiz-adv-x="526" 
d="M333 615h150v-150h-150v150zM43 410h150v-150h-150v150zM333 200h150v-150h-150v150z" />
    <glyph glyph-name="uni2057" unicode="&#x2057;" horiz-adv-x="836" 
d="M196 680q-68 16 -153 0q0 -10 -1.5 -41t-2.5 -43.5t-3 -40t-4.5 -45t-7 -42t-10.5 -47.5t-14 -46h3q134 136 193 305zM396 680q-68 16 -153 0q0 -10 -1.5 -41t-2.5 -43.5t-3 -40t-4.5 -45t-7 -42t-10.5 -47.5t-14 -46h3q134 136 193 305zM596 680q-68 16 -153 0
q0 -10 -1.5 -41t-2.5 -43.5t-3 -40t-4.5 -45t-7 -42t-10.5 -47.5t-14 -46h3q134 136 193 305zM796 680q-68 16 -153 0q0 -10 -1.5 -41t-2.5 -43.5t-3 -40t-4.5 -45t-7 -42t-10.5 -47.5t-14 -46h3q134 136 193 305z" />
    <glyph glyph-name="Euro" unicode="&#x20ac;" horiz-adv-x="660" 
d="M612 190h3l-8 -132q-65 -73 -204 -73q-119 0 -193 60t-90 157h-102v3h101q-3 23 -3 46q0 36 8 71h-106v3h107q25 98 107 156.5t191 58.5q75 0 173 -37v-138h-3q-21 81 -69 126.5t-105 45.5q-60 0 -96 -52.5t-41 -159.5h126v-3h-126q-1 -11 -1 -33q0 -49 5 -84h122v-3
h-122q11 -93 45 -152.5t93 -59.5t114.5 56t73.5 144z" />
    <glyph glyph-name="minus" unicode="&#x2212;" 
d="M505 205h-410v50h410v-50z" />
    <glyph glyph-name="Q.ss03" horiz-adv-x="795" 
d="M643 -101q63 0 91 35l3 -1q-45 -129 -137 -153q-52 8 -100 34.5t-77 53.5t-62.5 48.5t-62.5 21.5q-48 0 -89 -46l-2 3q47 59 186 91v2q-135 -7 -235 98t-100 245q0 155 97.5 252t242.5 97q144 0 241.5 -95.5t97.5 -250.5q0 -147 -89 -242t-225 -106q-66 -5 -152 -46v-2
q53 10 126.5 0t144 -24.5t101.5 -14.5zM228 365q0 -185 52.5 -280.5t137.5 -95.5q149 0 149 311q0 185 -52.5 281t-137.5 96q-149 0 -149 -312z" />
    <glyph glyph-name="i.loclTRK" horiz-adv-x="316" 
d="M163 530q-37 0 -62 25t-25 61t25.5 61.5t61.5 25.5t61 -25.5t25 -61.5q0 -35 -25 -60.5t-61 -25.5zM233 90q0 -55 11 -70t49 -17v-3h-255v3q27 2 36 17.5t9 69.5v269q0 29 -25 29q-18 0 -44 -10l-1 2l221 103l3 -3q-4 -40 -4 -131v-259z" />
    <glyph glyph-name="germandbls.calt" horiz-adv-x="756" 
d="M552 488q0 -29 15 -54t38 -42.5t49.5 -39.5t49.5 -44t38 -57.5t15 -77.5q0 -94 -67.5 -141t-173.5 -47q-107 0 -173 38q26 55 68 90q74 -125 130 -125q33 0 52 32.5t19 73.5q0 38 -22 70t-54 56t-63.5 49.5t-53.5 62t-22 82.5q0 70 65.5 139t189.5 109h-335
q-23 0 -33.5 -13.5t-10.5 -53.5v-515q0 -46 10.5 -60.5t34.5 -16.5v-3h-260v3q31 2 43 16.5t12 60.5v505q0 47 -14 61t-56 16v3h615v-3q-50 -28 -78 -79.5t-28 -94.5z" />
    </font>
</defs>
</svg>
