<svg xmlns="http://www.w3.org/2000/svg" width="20.188" height="20.188" viewBox="0 0 20.188 20.188">
  <metadata><?xpacket begin="﻿" id="W5M0MpCehiHzreSzNTczkc9d"?>
<x:xmpmeta xmlns:x="adobe:ns:meta/" x:xmptk="Adobe XMP Core 5.6-c142 79.160924, 2017/07/13-01:06:39        ">
   <rdf:RDF xmlns:rdf="http://www.w3.org/1999/02/22-rdf-syntax-ns#">
      <rdf:Description rdf:about=""/>
   </rdf:RDF>
</x:xmpmeta>
                                                                                                    
                                                                                                    
                                                                                                    
                                                                                                    
                                                                                                    
                                                                                                    
                                                                                                    
                                                                                                    
                                                                                                    
                                                                                                    
                                                                                                    
                                                                                                    
                                                                                                    
                                                                                                    
                                                                                                    
                                                                                                    
                                                                                                    
                                                                                                    
                                                                                                    
                                                                                                    
                           
<?xpacket end="w"?></metadata>
<defs>
    <style>
      .cls-1 {
        fill: #222;
        fill-rule: evenodd;
      }
    </style>
  </defs>
  <path id="TM_kopiuj_10" data-name="TM kopiuj 10" class="cls-1" d="M85.292,22.174L84.516,21.4,73.511,32.4l0.776,0.776Zm2-2L86.515,19.4,75.126,30.787,75.9,31.563ZM76.4,27.952l-0.776.776,2.342,2.342,0.776-.776Zm-3.854-7,0.776,0.776-2.342,2.342L70.2,23.291Zm0.777,0.777L74.1,22.5l-2.342,2.342-0.776-.776Zm0,0L74.1,22.5l-2.342,2.342-0.776-.776ZM74.1,22.5l0.776,0.776L72.53,25.62l-0.776-.776Zm0.776,0.776,0.776,0.776L73.306,26.4,72.53,25.62Zm-3.108-3.1L72.54,19.4l11.005,11-0.776.776Zm-2.326,3.878,0.776-.776,3.875,3.875-0.776.776Zm6.2-.008,0.776,0.776-2.342,2.342L73.3,26.389Zm-3.9-.747,0.776,0.776-0.767.767-0.776-.776ZM73.3,24.852l0.776,0.776-0.767.767-0.776-.776Zm2.737,5.809a3.79,3.79,0,1,1-5.36,0A3.79,3.79,0,0,1,76.034,30.661Zm-0.777.777a2.691,2.691,0,1,1-3.806,0A2.692,2.692,0,0,1,75.257,31.438Zm6.208-1.556,0.776-.776,2.736,2.736-0.776.776Zm-4.253.373-0.776-.776L74.094,31.82,74.871,32.6Zm5.447-2.305,0.776,0.776-2.342,2.342-0.776-.776Zm3.854-7-0.776.776,2.342,2.342,0.776-.776Zm-0.777.777L84.96,22.5,87.3,24.841l0.776-.776Zm0,0L84.96,22.5,87.3,24.841l0.776-.776Zm-0.777.777-0.776.776,2.342,2.342,0.776-.776Zm-0.776.776-0.776.776,2.342,2.342,0.776-.776Zm5.434,0.777-0.776-.776-3.875,3.875,0.776,0.776Zm-6.2-.008-0.776.776,2.342,2.342,0.776-.776Zm3.886,0.8-0.776.776,0.767,0.767,0.776-.776Zm-0.767-.767-0.776.776,0.767,0.767,0.776-.776ZM87.31,23.3l-0.776.776L87.3,24.841l0.776-.776Zm-1.551,1.551-0.776.776,0.767,0.767,0.776-.776Zm0.008-1.542-0.776.776,0.767,0.767,0.776-.776Zm-6.228-6.255,0.776,0.776L77.974,20.17,77.2,19.394Zm0.777,0.776,0.776,0.776L78.75,20.947l-0.776-.776Zm0.776,0.776,0.776,0.776-2.342,2.342-0.776-.776Zm-1.538-.015,0.776,0.776-0.767.767-0.776-.776ZM73.326,31.055L74.1,31.831l-2.342,2.342L70.984,33.4ZM74.1,31.832l0.776,0.776L72.537,34.95l-0.776-.776Zm0.776,0.776,0.776,0.776-2.342,2.342-0.776-.776Zm-1.538-.015,0.776,0.776-0.767.767-0.776-.776Zm11.834-.572a2.467,2.467,0,1,1-3.488,0A2.466,2.466,0,0,1,85.175,32.021ZM84.4,32.8a1.368,1.368,0,1,1-1.935,0A1.368,1.368,0,0,1,84.4,32.8Zm3.484-3.484a2.467,2.467,0,1,1-3.488,0A2.467,2.467,0,0,1,87.882,29.314Zm-0.777.777a1.368,1.368,0,1,1-1.935,0A1.368,1.368,0,0,1,87.105,30.091ZM88.876,33a2.466,2.466,0,1,1-3.488,0A2.466,2.466,0,0,1,88.876,33Zm-0.777.777a1.368,1.368,0,1,1-1.935,0A1.368,1.368,0,0,1,88.1,33.779Zm-17.12-9.711,0.776,0.776-0.767.767-0.776-.776Zm1.551,1.551L73.306,26.4l-0.767.767-0.776-.776Z" transform="translate(-69.438 -17.063)"/>
</svg>
